<svg xmlns="http://www.w3.org/2000/svg" viewBox="0 0 1440 820"><defs><style>.cls-1{font-size:11.04px;}.cls-1,.cls-3{fill:#fff;font-family:IBMPlexMono-Light, IBM Plex Mono;font-weight:300;}.cls-2{fill:none;}.cls-2,.cls-4{stroke:#fff;stroke-miterlimit:10;stroke-width:0.5px;}.cls-3{font-size:11px;}</style></defs><g id="Layer_3" data-name="Layer 3"><rect width="1440" height="820"/></g><g id="text-2" data-name="text"><text class="cls-1" transform="matrix(0.99, 0.12, -0.12, 0.99, 761.35, 42.44)">1</text><text class="cls-1" transform="translate(767.95 43.24) rotate(7.93)">9</text><text class="cls-1" transform="translate(774.56 44.16) rotate(8.94)">2</text><text class="cls-1" transform="matrix(0.98, 0.17, -0.17, 0.98, 781.12, 45.2)">0</text><text class="cls-1" transform="translate(787.67 46.35) rotate(10.99)"> </text><text class="cls-1" transform="translate(867.81 70.83) rotate(24.05)">1</text><text class="cls-1" transform="translate(873.88 73.54) rotate(25.09)">9</text><text class="cls-1" transform="translate(879.92 76.37) rotate(26.13)">2</text><text class="cls-1" transform="matrix(0.89, 0.46, -0.46, 0.89, 885.88, 79.3)">5</text><text class="cls-1" transform="matrix(0.88, 0.47, -0.47, 0.88, 891.81, 82.34)"> </text><text class="cls-1" transform="translate(961.1 129.45) rotate(41.23)">1</text><text class="cls-1" transform="matrix(0.74, 0.67, -0.67, 0.74, 966.09, 133.82)">9</text><text class="cls-1" transform="matrix(0.73, 0.69, -0.69, 0.73, 971.03, 138.31)">3</text><text class="cls-1" transform="matrix(0.72, 0.7, -0.7, 0.72, 975.88, 142.88)">0</text><text class="cls-1" transform="matrix(0.7, 0.71, -0.71, 0.7, 980.65, 147.53)"> </text><text class="cls-1" transform="translate(1033.03 212.9) rotate(58.27)">1</text><text class="cls-1" transform="matrix(0.51, 0.86, -0.86, 0.51, 1036.54, 218.57)">9</text><text class="cls-1" transform="matrix(0.5, 0.87, -0.87, 0.5, 1039.93, 224.29)">3</text><text class="cls-1" transform="matrix(0.48, 0.88, -0.88, 0.48, 1043.23, 230.08)">5</text><text class="cls-1" transform="translate(1046.42 235.91) rotate(62.38)"> </text><text class="cls-1" transform="matrix(0.25, 0.97, -0.97, 0.25, 1077.29, 313.8)">1</text><text class="cls-1" transform="matrix(0.23, 0.97, -0.97, 0.23, 1078.97, 320.24)">9</text><text class="cls-1" transform="matrix(0.22, 0.98, -0.98, 0.22, 1080.52, 326.72)">4</text><text class="cls-1" transform="translate(1081.97 333.23) rotate(78.55)">0</text><text class="cls-1" transform="translate(1083.29 339.75) rotate(79.58)"> </text><text class="cls-1" transform="translate(1089.71 423.27) rotate(92.61)">1</text><text class="cls-1" transform="translate(1089.41 429.92) rotate(93.63)">9</text><text class="cls-1" transform="translate(1088.99 436.58) rotate(94.65)">4</text><text class="cls-1" transform="translate(1088.4 443.23) rotate(94.93)">5</text><text class="cls-1" transform="translate(1087.8 449.84) rotate(96.79)"> </text><text class="cls-1" transform="matrix(-0.34, 0.94, -0.94, -0.34, 1069.49, 531.61)">1</text><text class="cls-1" transform="matrix(-0.35, 0.94, -0.94, -0.35, 1067.25, 537.88)">9</text><text class="cls-1" transform="translate(1064.89 544.12) rotate(111.72)">5</text><text class="cls-1" transform="translate(1062.43 550.3) rotate(112.76)">0</text><text class="cls-1" transform="translate(1059.86 556.43) rotate(113.8)"> </text><text class="cls-1" transform="matrix(-0.6, 0.8, -0.8, -0.6, 1018.2, 629.1)">1</text><text class="cls-1" transform="matrix(-0.61, 0.79, -0.79, -0.61, 1014.19, 634.44)">9</text><text class="cls-1" transform="translate(1010.09 639.71) rotate(128.93)">5</text><text class="cls-1" transform="translate(1005.92 644.88) rotate(129.96)">5</text><text class="cls-1" transform="translate(1001.65 649.97) rotate(130.98)"> </text><text class="cls-1" transform="translate(940.42 707.17) rotate(143.92)">1</text><text class="cls-1" transform="matrix(-0.82, 0.57, -0.57, -0.82, 935.04, 711.09)">9</text><text class="cls-1" transform="matrix(-0.83, 0.56, -0.56, -0.83, 929.59, 714.92)">6</text><text class="cls-1" transform="matrix(-0.84, 0.54, -0.54, -0.84, 924.07, 718.64)">0</text><text class="cls-1" transform="translate(918.48 722.27) rotate(148.03)"> </text><text class="cls-1" transform="translate(843.18 758.99) rotate(161.03)">1</text><text class="cls-1" transform="translate(836.87 761.16) rotate(162.07)">9</text><text class="cls-1" transform="translate(830.54 763.21) rotate(163.11)">6</text><text class="cls-1" transform="translate(824.17 765.14) rotate(164.14)">5</text><text class="cls-1" transform="translate(817.75 766.97) rotate(165.18)"> </text><text class="cls-1" transform="translate(734.96 779.76) rotate(178.27)">1</text><text class="cls-1" transform="translate(728.31 779.96) rotate(179.3)">9</text><text class="cls-1" transform="matrix(-1, -0.01, 0.01, -1, 721.65, 780.04)">7</text><text class="cls-1" transform="translate(715.01 780) rotate(-178.65)">0</text><text class="cls-1" transform="translate(708.34 779.85) rotate(-177.63)"> </text><text class="cls-1" transform="matrix(-0.96, -0.26, 0.26, -0.96, 625.42, 767.78)">1</text><text class="cls-1" transform="translate(618.99 766.03) rotate(-163.71)">9</text><text class="cls-1" transform="translate(612.59 764.15) rotate(-162.67)">7</text><text class="cls-1" transform="matrix(-0.95, -0.32, 0.32, -0.95, 606.24, 762.17)">5</text><text class="cls-1" transform="translate(599.94 760.08) rotate(-160.6)"> </text><text class="cls-1" transform="matrix(-0.84, -0.54, 0.54, -0.84, 524.25, 724.09)">1</text><text class="cls-1" transform="translate(518.64 720.52) rotate(-146.47)">9</text><text class="cls-1" transform="translate(513.11 716.85) rotate(-145.44)">8</text><text class="cls-1" transform="matrix(-0.81, -0.58, 0.58, -0.81, 507.61, 713.06)">0</text><text class="cls-1" transform="matrix(-0.8, -0.6, 0.6, -0.8, 502.19, 709.18)"> </text><text class="cls-1" transform="translate(440.53 652.48) rotate(-130.42)">1</text><text class="cls-1" transform="matrix(-0.63, -0.77, 0.77, -0.63, 436.22, 647.41)">9</text><text class="cls-1" transform="matrix(-0.62, -0.78, 0.78, -0.62, 431.99, 642.27)">8</text><text class="cls-1" transform="matrix(-0.61, -0.79, 0.79, -0.61, 427.86, 637.05)">5</text><text class="cls-1" transform="matrix(-0.59, -0.81, 0.81, -0.59, 423.82, 631.76)"> </text><text class="cls-1" transform="matrix(-0.4, -0.92, 0.92, -0.4, 381.47, 559.45)">1</text><text class="cls-1" transform="translate(378.84 553.35) rotate(-112.32)">9</text><text class="cls-1" transform="matrix(-0.36, -0.93, 0.93, -0.36, 376.3, 547.17)">9</text><text class="cls-1" transform="translate(373.89 540.97) rotate(-110.25)">0</text><text class="cls-1" transform="translate(371.58 534.72) rotate(-109.21)"> </text><text class="cls-1" transform="matrix(-0.11, -0.99, 0.99, -0.11, 352.48, 453.16)">1</text><text class="cls-1" transform="translate(351.77 446.54) rotate(-95.08)">9</text><text class="cls-1" transform="translate(351.18 439.92) rotate(-94.05)">9</text><text class="cls-1" transform="translate(350.71 433.27) rotate(-93.01)">5</text><text class="cls-1" transform="translate(350.36 426.61) rotate(-91.98)"> </text><text class="cls-1" transform="matrix(0.19, -0.98, 0.98, 0.19, 356.15, 343.02)">2</text><text class="cls-1" transform="matrix(0.21, -0.98, 0.98, 0.21, 357.41, 336.49)">0</text><text class="cls-1" transform="translate(358.79 329.96) rotate(-77.05)">0</text><text class="cls-1" transform="translate(360.27 323.49) rotate(-76.03)">0</text><text class="cls-1" transform="translate(361.89 317) rotate(-74.99)"> </text><text class="cls-1" transform="matrix(0.47, -0.88, 0.88, 0.47, 391.96, 238.81)">2</text><text class="cls-1" transform="translate(395.09 232.94) rotate(-60.86)">0</text><text class="cls-1" transform="translate(398.33 227.14) rotate(-59.83)">0</text><text class="cls-1" transform="translate(401.68 221.37) rotate(-58.79)">5</text><text class="cls-1" transform="translate(405.13 215.67) rotate(-57.75)"> </text><text class="cls-1" transform="translate(456.99 149.88) rotate(-44.76)">2</text><text class="cls-1" transform="matrix(0.72, -0.69, 0.69, 0.72, 461.72, 145.18)">0</text><text class="cls-1" transform="translate(466.53 140.58) rotate(-42.71)">1</text><text class="cls-1" transform="matrix(0.75, -0.67, 0.67, 0.75, 471.43, 136.06)">0</text><text class="cls-1" transform="matrix(0.76, -0.65, 0.65, 0.76, 476.4, 131.64)"> </text><text class="cls-1" transform="matrix(0.89, -0.47, 0.47, 0.89, 545.28, 83.94)">2</text><text class="cls-1" transform="matrix(0.89, -0.45, 0.45, 0.89, 551.16, 80.84)">0</text><text class="cls-1" transform="translate(557.11 77.85) rotate(-25.66)">1</text><text class="cls-1" transform="translate(563.11 74.97) rotate(-24.63)">5</text><text class="cls-1" transform="matrix(0.92, -0.4, 0.4, 0.92, 569.17, 72.19)"> </text><text class="cls-1" transform="translate(649.04 46.89) rotate(-10.52)">2</text><text class="cls-1" transform="translate(655.6 45.67) rotate(-9.48)">0</text><text class="cls-1" transform="translate(662.15 44.58) rotate(-8.44)">2</text><text class="cls-1" transform="translate(668.74 43.6) rotate(-7.4)">0</text><g id="dashes"><line class="cls-2" x1="1074.06" y1="494.23" x2="1093.71" y2="498.9"/><line class="cls-2" x1="1033.61" y1="594.61" x2="1051.02" y2="604.85"/><line class="cls-2" x1="965.43" y1="678.65" x2="979.06" y2="693.56"/><line class="cls-2" x1="875.56" y1="738.94" x2="884.19" y2="757.19"/><line class="cls-2" x1="771.93" y1="770.13" x2="774.81" y2="790.12"/><line class="cls-2" x1="663.71" y1="769.47" x2="660.59" y2="789.43"/><line class="cls-2" x1="560.46" y1="737.02" x2="551.62" y2="755.18"/><line class="cls-2" x1="471.32" y1="675.65" x2="457.53" y2="690.4"/><line class="cls-2" x1="404.17" y1="590.78" x2="386.65" y2="600.82"/><line class="cls-2" x1="364.95" y1="489.91" x2="345.25" y2="494.36"/><line class="cls-2" x1="357.11" y1="381.97" x2="336.98" y2="380.43"/><line class="cls-2" x1="381.36" y1="276.5" x2="362.57" y2="269.11"/><line class="cls-2" x1="435.55" y1="182.83" x2="419.77" y2="170.23"/><line class="cls-2" x1="514.89" y1="109.22" x2="503.51" y2="92.54"/><line class="cls-2" x1="612.37" y1="62.2" x2="606.39" y2="42.91"/><line class="cls-2" x1="719.36" y1="45.92" x2="719.32" y2="25.73"/><line class="cls-2" x1="826.41" y1="61.83" x2="832.31" y2="42.51"/><line class="cls-2" x1="924.05" y1="108.5" x2="935.37" y2="91.77"/><line class="cls-2" x1="1003.65" y1="181.82" x2="1019.39" y2="169.16"/><line class="cls-2" x1="1058.17" y1="275.31" x2="1076.93" y2="267.83"/><line class="cls-2" x1="1082.8" y1="380.69" x2="1102.93" y2="379.06"/></g><circle id="circle-year-out" class="cls-2" cx="720" cy="410" r="384.42"/><circle id="circle-year-in" class="cls-2" cx="720" cy="410" r="363.74"/><circle id="vietnam" class="cls-2" cx="720" cy="410" r="325"/><rect id="rc-vt" x="694.28" y="79.85" width="52.62" height="10.3"/><text class="cls-3" transform="translate(696.86 89.31) rotate(-3.49)">V</text><text class="cls-3" transform="translate(703.47 88.9) rotate(-2.32)">I</text><text class="cls-3" transform="matrix(1, -0.02, 0.02, 1, 710.12, 88.64)">E</text><text class="cls-3" transform="translate(716.7 88.45) rotate(0.93)">T</text><text class="cls-3" transform="matrix(1, 0.02, -0.02, 1, 723.35, 88.5)">N</text><text class="cls-3" transform="translate(730 88.64) rotate(2.33)">A</text><text class="cls-3" transform="translate(736.62 88.91) rotate(3.5)">M</text><circle id="thailand" class="cls-2" cx="720" cy="410" r="305"/><rect id="rc-th" x="691.55" y="99.85" width="57.02" height="10.3"/><text class="cls-3" transform="matrix(1, -0.08, 0.08, 1, 693.54, 109.63)">T</text><text class="cls-3" transform="translate(700.17 109.13) rotate(-3.09)">H</text><text class="cls-3" transform="translate(706.77 108.77) rotate(-1.85)">A</text><text class="cls-3" transform="translate(713.41 108.57) rotate(-0.93)">I</text><text class="cls-3" transform="translate(720.02 108.47) rotate(0.93)">L</text><text class="cls-3" transform="translate(726.67 108.56) rotate(1.86)">A</text><text class="cls-3" transform="translate(733.28 108.77) rotate(3.1)">N</text><text class="cls-3" transform="translate(739.91 109.13) rotate(4.35)">D</text><circle id="singapore" class="cls-2" cx="720" cy="410" r="285"/><rect id="rc-sg" x="687.49" y="120.47" width="64.69" height="10.3"/><text class="cls-3" transform="translate(690.27 130.04) rotate(-5.32)">S</text><text class="cls-3" transform="translate(696.87 129.42) rotate(-3.98)">I</text><text class="cls-3" transform="translate(703.49 128.96) rotate(-2.65)">N</text><text class="cls-3" transform="translate(710.09 128.65) rotate(-1.32)">G</text><text class="cls-3" transform="translate(716.73 128.45) rotate(0.93)">A</text><text class="cls-3" transform="matrix(1, 0.02, -0.02, 1, 723.35, 128.5)">P</text><text class="cls-3" transform="matrix(1, 0.05, -0.05, 1, 729.95, 128.66)">O</text><text class="cls-3" transform="matrix(1, 0.07, -0.07, 1, 736.58, 128.96)">R</text><text class="cls-3" transform="translate(743.2 129.43) rotate(5.33)">E</text><circle id="philippines" class="cls-2" cx="720" cy="410" r="265"/><rect id="rc-ph" x="680.22" y="139.85" width="78.43" height="11.86"/><text class="cls-3" transform="translate(683.73 150.98) rotate(-7.18)">P</text><text class="cls-3" transform="translate(690.29 150.15) rotate(-5.73)">H</text><text class="cls-3" transform="translate(696.88 149.49) rotate(-4.29)">I</text><text class="cls-3" transform="translate(703.48 148.99) rotate(-2.85)">L</text><text class="cls-3" transform="matrix(1, -0.02, 0.02, 1, 710.11, 148.66)">I</text><text class="cls-3" transform="matrix(1, 0.02, -0.02, 1, 716.73, 148.45)">P</text><text class="cls-3" transform="matrix(1, 0.02, -0.02, 1, 723.35, 148.5)">P</text><text class="cls-3" transform="translate(729.95 148.67) rotate(2.86)">I</text><text class="cls-3" transform="matrix(1, 0.07, -0.07, 1, 736.57, 149)">N</text><text class="cls-3" transform="translate(743.17 149.49) rotate(5.74)">E</text><text class="cls-3" transform="translate(749.78 150.16) rotate(7.19)">S</text><circle id="malaysia" class="cls-2" cx="720" cy="410" r="245"/><rect id="rc-my" x="690.82" y="159.59" width="57.75" height="11.86"/><text class="cls-3" transform="translate(693.6 169.91) rotate(-5.43)">M</text><text class="cls-3" transform="matrix(1, -0.07, 0.07, 1, 700.19, 169.28)">A</text><text class="cls-3" transform="translate(706.79 168.84) rotate(-2.31)">L</text><text class="cls-3" transform="translate(713.39 168.58) rotate(-0.93)">A</text><text class="cls-3" transform="translate(720.02 168.47) rotate(0.93)">Y</text><text class="cls-3" transform="translate(726.62 168.57) rotate(2.31)">S</text><text class="cls-3" transform="matrix(1, 0.07, -0.07, 1, 733.23, 168.84)">I</text><text class="cls-3" transform="translate(739.84 169.28) rotate(5.43)">A</text><circle id="laos" class="cls-2" cx="720" cy="410" r="225"/><rect id="rc-laos" x="704.12" y="179.07" width="32.01" height="11.86"/><text class="cls-3" transform="matrix(1, -0.04, 0.04, 1, 706.79, 188.86)">L</text><text class="cls-3" transform="translate(713.39 188.58) rotate(-0.93)">A</text><text class="cls-3" transform="translate(720.01 188.47) rotate(0.93)">O</text><text class="cls-3" transform="matrix(1, 0.04, -0.04, 1, 726.62, 188.57)">S</text><circle id="indonesia" class="cls-2" cx="720" cy="410" r="205"/><rect id="rc-ind" x="687.82" y="199.85" width="64.59" height="11.86"/><text class="cls-3" transform="matrix(0.99, -0.13, 0.13, 0.99, 690.38, 210.64)">I</text><text class="cls-3" transform="matrix(1, -0.1, 0.1, 1, 696.91, 209.78)">N</text><text class="cls-3" transform="translate(703.49 209.14) rotate(-3.71)">D</text><text class="cls-3" transform="matrix(1, -0.03, 0.03, 1, 710.09, 208.72)">O</text><text class="cls-3" transform="translate(716.7 208.45) rotate(0.93)">N</text><text class="cls-3" transform="matrix(1, 0.03, -0.03, 1, 723.32, 208.5)">E</text><text class="cls-3" transform="translate(729.91 208.72) rotate(3.7)">S</text><text class="cls-3" transform="translate(736.51 209.14) rotate(5.57)">I</text><text class="cls-3" transform="translate(743.08 209.78) rotate(7.44)">A</text><circle id="timorleste" class="cls-2" cx="720" cy="410" r="185"/><rect id="rc-tl" x="680.93" y="220.63" width="78.38" height="11.86"/><text class="cls-3" transform="translate(683.93 232.06) rotate(-10.35)">T</text><text class="cls-3" transform="translate(690.4 230.87) rotate(-8.27)">I</text><text class="cls-3" transform="translate(696.95 229.92) rotate(-6.18)">M</text><text class="cls-3" transform="translate(703.5 229.21) rotate(-4.11)">O</text><text class="cls-3" transform="translate(710.09 228.74) rotate(-2.05)">R</text><text class="cls-3" transform="translate(716.66 228.56) rotate(-0.93)">-</text><text class="cls-3" transform="translate(723.28 228.5) rotate(2.04)">L</text><text class="cls-3" transform="translate(729.88 228.74) rotate(4.1)">E</text><text class="cls-3" transform="matrix(0.99, 0.11, -0.11, 0.99, 736.48, 229.21)">S</text><text class="cls-3" transform="translate(743.04 229.92) rotate(8.26)">T</text><text class="cls-3" transform="translate(749.58 230.87) rotate(10.35)">E</text><circle id="cambodia" class="cls-2" cx="720" cy="410" r="165"/><rect id="rc-cam" x="690.72" y="238.77" width="58.81" height="13.19"/><text class="cls-3" transform="translate(693.71 250.6) rotate(-8.12)">C</text><text class="cls-3" transform="matrix(0.99, -0.1, 0.1, 0.99, 700.24, 249.67)">A</text><text class="cls-3" transform="translate(706.82 249) rotate(-3.46)">M</text><text class="cls-3" transform="translate(713.38 248.6) rotate(-1.16)">B</text><text class="cls-3" transform="translate(719.99 248.47) rotate(1.15)">O</text><text class="cls-3" transform="translate(726.57 248.6) rotate(3.45)">D</text><text class="cls-3" transform="translate(733.17 249) rotate(5.78)">I</text><text class="cls-3" transform="matrix(0.99, 0.14, -0.14, 0.99, 739.73, 249.66)">A</text><circle id="burma" class="cls-2" cx="720" cy="410" r="145"/><rect id="rc-bur" x="673.4" y="259.7" width="92.58" height="14.71"/><text class="cls-3" transform="translate(677.86 274.84) rotate(-15.95)">B</text><text class="cls-3" transform="matrix(0.97, -0.23, 0.23, 0.97, 684.19, 273.03)">U</text><text class="cls-3" transform="matrix(0.98, -0.18, 0.18, 0.98, 690.6, 271.52)">R</text><text class="cls-3" transform="translate(697.08 270.31) rotate(-7.91)">M</text><text class="cls-3" transform="matrix(1, -0.09, 0.09, 1, 703.59, 269.4)">A</text><text class="cls-3" transform="translate(710.16 268.8) rotate(-2.61)">/</text><text class="cls-3" transform="translate(716.7 268.45) rotate(0.93)">M</text><text class="cls-3" transform="matrix(1, 0.05, -0.05, 1, 723.31, 268.5)">Y</text><text class="cls-3" transform="translate(729.9 268.81) rotate(5.28)">A</text><text class="cls-3" transform="translate(736.44 269.41) rotate(7.93)">N</text><text class="cls-3" transform="translate(742.98 270.32) rotate(10.61)">M</text><text class="cls-3" transform="translate(749.44 271.53) rotate(13.29)">A</text><text class="cls-3" transform="translate(755.85 273.04) rotate(15.98)">R</text><circle id="brunei" class="cls-2" cx="720" cy="410" r="125"/><rect id="rc-brunei" x="696.2" y="279.74" width="46.62" height="11.86"/><text class="cls-3" transform="translate(700.38 290.03) rotate(-7.66)">B</text><text class="cls-3" transform="matrix(1, -0.08, 0.08, 1, 706.88, 289.16)">R</text><text class="cls-3" transform="translate(713.44 288.63) rotate(-1.51)">U</text><text class="cls-3" transform="translate(720.01 288.46) rotate(1.53)">N</text><text class="cls-3" transform="translate(726.59 288.63) rotate(4.6)">E</text><text class="cls-3" transform="translate(733.13 289.16) rotate(7.68)">I</text></g><g id="dot2"><path id="viet1" class="cls-4" d="M722.65,740h-.19a5,5,0,0,1-5-4.85,5,5,0,0,1,4.88-5.15h.25a5,5,0,1,1,0,10"/><path id="viet2" class="cls-4" d="M513.13,665.73a5,5,0,0,1-3.14-1.11l-.17-.14a5,5,0,1,1,3.31,1.25Z"/><path id="viet3" class="cls-4" d="M934.1,661.13a5.07,5.07,0,0,1-3.29,1.22,5,5,0,0,1-3.31-8.73l.14-.13a5,5,0,1,1,6.46,7.64"/><path id="viet4" class="cls-4" d="M400.31,474.11a5,5,0,0,1-4.89-4.06l0-.1a5,5,0,0,1,9.84-1.79,5.05,5.05,0,0,1-4,5.87A5.59,5.59,0,0,1,400.31,474.11Z"/><path id="viet5" class="cls-4" d="M1040.48,469.12a4.71,4.71,0,0,1-.74-.06,5,5,0,0,1-4.22-5.71l0-.27,0-.14v-.14l.05-.26a5,5,0,1,1,9.84,1.79h0v0h0c0,.1,0,.19,0,.28a2.17,2.17,0,0,0,0,.25h0A4.94,4.94,0,0,1,1040.48,469.12Z"/><path id="viet6" class="cls-4" d="M437.07,254.89a5.06,5.06,0,1,1,4.46-2.73l-.14.26A5,5,0,0,1,437.07,254.89Z"/><path id="viet7" class="cls-4" d="M1000,250a5,5,0,0,1-4.32-2.47,5,5,0,0,1,1.76-6.89,5,5,0,0,1,6.81,1.75l.05.08a5,5,0,0,1-1.78,6.84A4.94,4.94,0,0,1,1000,250Z"/><path id="viet8" class="cls-4" d="M606.17,110.53a5,5,0,0,1-1.83-9.66l.27-.1a5,5,0,0,1,3.32,9.44A5,5,0,0,1,606.17,110.53Z"/><path id="viet9" class="cls-4" d="M828.51,108.6a5,5,0,1,1,1.54-9.77l.27.1a5,5,0,0,1-1.81,9.67Z"/><path id="thai1" class="cls-4" d="M717.63,720.13h-.57a5,5,0,1,1,.57,0Z"/><path id="thai2" class="cls-4" d="M897,662.55a5,5,0,1,1,2.61-1l-.08.06A5,5,0,0,1,897,662.55Z"/><path id="thai3" class="cls-4" d="M538.55,661.22a4.94,4.94,0,0,1-3.3-.94l-.17-.12a5,5,0,1,1,3.47,1.06Z"/><path id="thai4" class="cls-4" d="M1008.42,510.53a4.88,4.88,0,0,1-1.95-.25,5,5,0,0,1-3.15-6.33l.06-.15a1.66,1.66,0,0,1,.06-.21,5,5,0,0,1,6.31-3.2,5,5,0,0,1,3.22,6.23s0,.14-.05.17a.36.36,0,0,0,0,.11.19.19,0,0,0,0,.07l-.06.17A5,5,0,0,1,1008.42,510.53Z"/><path id="thai5" class="cls-4" d="M428.34,508.31a5,5,0,0,1-5.12-3.44l-.06-.2a5,5,0,1,1,5.18,3.64Z"/><path id="thai6" class="cls-4" d="M1009.14,321.7a5,5,0,1,1,4.37-6.63l.06.2a5,5,0,0,1-3.34,6.23A4.64,4.64,0,0,1,1009.14,321.7Z"/><path id="thai7" class="cls-4" d="M429,319.77a4.75,4.75,0,0,1-1.89-.23,5,5,0,0,1-3.22-6.22s0-.15.05-.17a5,5,0,0,1,9.48,3.19A5.07,5.07,0,0,1,429,319.77Z"/><path id="thai8" class="cls-4" d="M898.89,168.81a5,5,0,1,1,2.49-9.09l.17.12a5,5,0,0,1-2.66,9Z"/><path id="thai9" class="cls-4" d="M540.3,167.66a5,5,0,0,1-3.31-9l.08,0a5,5,0,1,1,5.79,8.15A5.14,5.14,0,0,1,540.3,167.66Z"/><path id="d-sg1" class="cls-4" d="M636.28,687.43a5,5,0,0,1-1.47-.22l-.3-.09a5,5,0,1,1,3-9.56l.27.09a5,5,0,0,1-1.46,9.78Z"/><path id="d-sg2" class="cls-4" d="M813.27,684.25a5,5,0,0,1-1.63-9.73l.26-.09a5,5,0,0,1,3.31,9.44l-.32.11A5.05,5.05,0,0,1,813.27,684.25Z"/><path id="d-sg3" class="cls-4" d="M491.39,585.19a5,5,0,0,1-4-2l-.17-.24a5,5,0,0,1,8-6l.18.25a5,5,0,0,1-4,8Z"/><path id="d-sg4" class="cls-4" d="M954.4,577a5,5,0,0,1-4.13-7.82l.19-.27a5,5,0,0,1,8.23,5.69l-.16.22A5,5,0,0,1,954.4,577Z"/><path id="d-sg5" class="cls-4" d="M1004.92,419.43h-.1a5,5,0,0,1-4.9-5.09v-.25a5,5,0,0,1,5-4.95h.05a5,5,0,0,1,4.95,5v.35A5,5,0,0,1,1004.92,419.43Z"/><path id="d-sg6" class="cls-4" d="M435.06,417.07a5,5,0,0,1-5-4.95v-.35a5,5,0,0,1,10,0V412a5,5,0,0,1-4.95,5.05Z"/><path id="d-sg7" class="cls-4" d="M952.43,250.06a5,5,0,0,1-4-2.07l-.14-.19a5,5,0,0,1,1.14-7,4.94,4.94,0,0,1,6.94,1.12l.16.22a5,5,0,0,1-4.05,7.93Z"/><path id="d-sg8" class="cls-4" d="M489,248.2a5,5,0,0,1-4.05-7.93l.18-.24a5,5,0,1,1,8.1,5.86l-.18.24A5,5,0,0,1,489,248.2Z"/><path id="d-sg9" class="cls-4" d="M809.91,144.55a5,5,0,0,1-1.61-.26l-.24-.08a5,5,0,0,1,3.13-9.5l.33.11a5,5,0,0,1-1.61,9.73Z"/><path id="d-sg10" class="cls-4" d="M632.33,143.88a5,5,0,0,1-1.51-9.76l.23-.08a5,5,0,0,1,3.13,9.5l-.35.11A4.93,4.93,0,0,1,632.33,143.88Z"/><path id="d-ph1" class="cls-4" d="M722.86,680a5,5,0,0,1-.07-10h.27a5,5,0,0,1,.07,10h-.27Z"/><path id="d-ph2" class="cls-4" d="M599.54,651.06a5,5,0,0,1-2.19-.52l-.15-.08a5,5,0,0,1-2.21-6.74,5,5,0,0,1,6.69-2.2,5.08,5.08,0,0,1,2.31,6.75A5,5,0,0,1,599.54,651.06Z"/><path id="d-ph3" class="cls-4" d="M845.68,648.33a5,5,0,0,1-2.35-9.41l.14-.08a5,5,0,0,1,4.77,8.8l-.21.11A5.07,5.07,0,0,1,845.68,648.33Z"/><path id="d-ph4" class="cls-4" d="M503.66,568.11a5,5,0,0,1-4.09-2.11l-.11-.16a5,5,0,1,1,8.16-5.78l.11.16a5,5,0,0,1-4.07,7.89Z"/><path id="d-ph5" class="cls-4" d="M939.65,563.19a4.91,4.91,0,0,1-2.78-.85,5,5,0,0,1-1.36-6.94l.12-.18,0,0a.56.56,0,0,1,.05-.08,5,5,0,0,1,6.95-1.46,5,5,0,0,1,1.45,6.89l-.16.23,0,.06-.1.14A5,5,0,0,1,939.65,563.19Z"/><path id="d-ph6" class="cls-4" d="M457.34,450a5,5,0,0,1-4.95-4.34l0-.18a5,5,0,1,1,9.91-1.35l0,.2A5,5,0,0,1,458,450,5.19,5.19,0,0,1,457.34,450Z"/><path id="d-ph7" class="cls-4" d="M983.45,443.89a4.26,4.26,0,0,1-.61,0,5,5,0,0,1-4.36-5.56l0-.12a5,5,0,1,1,9.94,1l0,.28A5,5,0,0,1,983.45,443.89Z"/><path id="d-ph8" class="cls-4" d="M471.09,324a5.19,5.19,0,0,1-1.72-.3,5,5,0,0,1-3-6.41l.07-.19a5,5,0,0,1,9.39,3.43l-.07.19A5,5,0,0,1,471.09,324Z"/><path id="d-ph9" class="cls-4" d="M966.67,318.17A5,5,0,0,1,962,315l-.06-.15a5,5,0,0,1,9.3-3.69l.09.23a5,5,0,0,1-4.67,6.8Z"/><path id="d-ph10" class="cls-4" d="M541.9,218.73a5,5,0,0,1-3.35-8.72l.11-.09a5,5,0,0,1,6.77,7.36l-.19.17A5,5,0,0,1,541.9,218.73Z"/><path id="d-ph11" class="cls-4" d="M893.45,214.65a5,5,0,0,1-3.27-1.22l-.15-.13a5,5,0,0,1,6.53-7.57l.15.13a5,5,0,0,1-3.26,8.79Z"/><path id="d-ph12" class="cls-4" d="M653.49,158.5a5,5,0,0,1-1.26-9.83l.26-.07a5,5,0,0,1,2.39,9.71l-.12,0A5,5,0,0,1,653.49,158.5Z"/><path id="d-ph13" class="cls-4" d="M780.51,157a4.89,4.89,0,0,1-1.19-.14l-.13,0a5,5,0,0,1,2.24-9.75l.25.06a5,5,0,0,1-1.17,9.86Z"/><path id="d-my1" class="cls-4" d="M648.38,649.34a5.06,5.06,0,0,1-1.48-.22l-.25-.08a5,5,0,1,1,2.87-9.58l.34.1a5,5,0,0,1-1.48,9.78Z"/><path id="d-my2" class="cls-4" d="M799.47,646.75a5,5,0,0,1-1.61-9.74l.28-.09a5,5,0,1,1,3.25,9.45l-.31.11A5,5,0,0,1,799.47,646.75Z"/><path id="d-my3" class="cls-4" d="M524.33,562.51a5,5,0,0,1-4-2l-.16-.22a5,5,0,1,1,8-6.06l.21.28a5,5,0,0,1-4,8Z"/><path id="d-my4" class="cls-4" d="M920.47,555.79a5,5,0,0,1-4.07-7.89l.3-.44a5,5,0,0,1,8.2,5.73l-.35.49A5,5,0,0,1,920.47,555.79Z"/><path id="d-my5" class="cls-4" d="M475,419.35a5,5,0,0,1-5-4.91v-.3a5,5,0,0,1,10-.2v.31a5,5,0,0,1-4.91,5.1Z"/><path id="d-my6" class="cls-4" d="M965,410.83a5,5,0,0,1-5-4.9v-.31a5,5,0,1,1,10-.19v.3a5,5,0,0,1-4.91,5.1Z"/><path id="d-my7" class="cls-4" d="M519.27,274.5a4.85,4.85,0,0,1-2.85-.91,4.94,4.94,0,0,1-1.24-6.9s0-.06.05-.06l.09-.13a5,5,0,0,1,8.26,5.63l-.16.24A5.11,5.11,0,0,1,519.27,274.5Z"/><path id="d-my8" class="cls-4" d="M915.78,267.63a5,5,0,0,1-4-2l-.21-.27a5,5,0,1,1,8-6l.17.21a5,5,0,0,1-4,8Z"/><path id="d-my9" class="cls-4" d="M640.11,183.4a5,5,0,0,1-1.62-9.73l.31-.11A5,5,0,1,1,642,183l-.27.1A5.16,5.16,0,0,1,640.11,183.4Z"/><path id="d-my10" class="cls-4" d="M791.8,180.71a5.12,5.12,0,0,1-1.44-.21l-.34-.1a5,5,0,1,1,3-9.55l.25.07a5,5,0,0,1-1.43,9.79Z"/><path id="d-laos1" class="cls-4" d="M796.71,626.49A5,5,0,0,1,795,616.8l.29-.11a5,5,0,1,1,3.41,9.4l-.24.09A5,5,0,0,1,796.71,626.49Z"/><path id="d-laos2" class="cls-4" d="M643.1,626.45a4.84,4.84,0,0,1-1.7-.3l-.31-.11a5,5,0,1,1,3.5-9.37l.22.08a5,5,0,0,1-1.71,9.7Z"/><path id="d-laos3" class="cls-4" d="M914.67,527.73a5,5,0,0,1-4.34-7.46l.28-.49a5,5,0,0,1,8.68,5l-.26.44A5,5,0,0,1,914.67,527.73Z"/><path id="d-laos4" class="cls-4" d="M525.2,527.58a5,5,0,0,1-4.33-2.48l-.17-.3a5,5,0,1,1,8.7-4.92l.11.18a5,5,0,0,1-4.31,7.52Z"/><path id="d-laos5" class="cls-4" d="M498.38,376a5.3,5.3,0,0,1-.88-.07,5,5,0,0,1-4.05-5.8l0-.24a5,5,0,0,1,9.86,1.66l-.05.32A5,5,0,0,1,498.38,376Z"/><path id="d-laos6" class="cls-4" d="M941.55,376a5,5,0,0,1-4.91-4.12l0-.29a5,5,0,1,1,9.84-1.74l.05.27a5,5,0,0,1-4,5.8A4.47,4.47,0,0,1,941.55,376Z"/><path id="d-laos7" class="cls-4" d="M575.25,242.71a5,5,0,0,1-3.22-8.82l.23-.19a5,5,0,1,1,6.42,7.66l-.22.18A4.93,4.93,0,0,1,575.25,242.71Z"/><path id="d-laos8" class="cls-4" d="M864.7,242.7a5,5,0,0,1-3.19-1.15l-.25-.21a5,5,0,1,1,6.43-7.65l.19.15a5,5,0,0,1-3.18,8.86Z"/><path id="d-ind1" class="cls-4" d="M656.83,610.05a4.87,4.87,0,0,1-1.54-.25l-.28-.09a5,5,0,1,1,3.07-9.51l.29.09a5,5,0,0,1-1.54,9.76Z"/><path id="d-ind2" class="cls-4" d="M783.23,610a5,5,0,0,1-1.57-9.75l.31-.1a5,5,0,1,1,3.08,9.51l-.25.08A5.06,5.06,0,0,1,783.23,610Z"/><path id="d-ind3" class="cls-4" d="M554.26,535.68a5,5,0,0,1-4-2l-.19-.27a5,5,0,1,1,8.11-5.84l.16.21a5,5,0,0,1-4,7.95Z"/><path id="d-ind4" class="cls-4" d="M885.73,535.59a5,5,0,0,1-4-8l.28-.39a5,5,0,1,1,8.1,5.87l-.31.43A5,5,0,0,1,885.73,535.59Z"/><path id="d-ind5" class="cls-4" d="M515,415.23a5,5,0,0,1-5-5V410a5,5,0,0,1,5-5h0a5,5,0,0,1,5,4.95v.34A5,5,0,0,1,515,415.23Z"/><path id="d-ind6" class="cls-4" d="M925,415a5,5,0,0,1-5-4.95v-.35a5,5,0,0,1,10,0v.25a5,5,0,0,1-5,5Z"/><path id="d-ind7" class="cls-4" d="M554,294.73a5,5,0,0,1-4-7.93l.2-.27a5,5,0,1,1,8.05,5.92l-.15.21A5,5,0,0,1,554,294.73Z"/><path id="d-ind8" class="cls-4" d="M885.86,294.47a5,5,0,0,1-4.06-2.08l-.16-.2a5,5,0,0,1,8.07-5.91l.2.27a5,5,0,0,1-1.14,7A4.92,4.92,0,0,1,885.86,294.47Z"/><path id="d-ind9" class="cls-4" d="M656.39,220.14a5,5,0,0,1-1.54-9.76l.26-.08a5,5,0,0,1,3.13,9.5l-.31.1A5.15,5.15,0,0,1,656.39,220.14Z"/><path id="d-ind10" class="cls-4" d="M783.36,220a4.85,4.85,0,0,1-1.54-.24l-.28-.09a5,5,0,0,1,3.07-9.52l.28.09a5,5,0,0,1-1.53,9.76Z"/><path id="d-tl1" class="cls-4" d="M723.73,601a5,5,0,0,1-.15-10H724a5,5,0,0,1,.09,10h-.39Z"/><path id="d-tl2" class="cls-4" d="M577.9,534.5a5,5,0,0,1-3.85-1.8l-.16-.2a5,5,0,1,1,7.64-6.45l.21.25a5,5,0,0,1-3.84,8.2Z"/><path id="d-tl3" class="cls-4" d="M866.9,528.42a5,5,0,0,1-4-8l.32-.42a5,5,0,1,1,7.94,6.07l-.26.35A5,5,0,0,1,866.9,528.42Z"/><path id="d-tl4" class="cls-4" d="M538.75,378.81a5.74,5.74,0,0,1-1-.1,5,5,0,0,1-3.9-5.9l.06-.3a5,5,0,1,1,9.79,2l-.05.28A5,5,0,0,1,538.75,378.81Z"/><path id="d-tl5" class="cls-4" d="M899.45,371.07a5,5,0,0,1-4.84-3.75l-.08-.33a5,5,0,1,1,9.71-2.4l.06.23a5,5,0,0,1-3.6,6.09A4.93,4.93,0,0,1,899.45,371.07Z"/><path id="d-tl6" class="cls-4" d="M636.05,251.12a5,5,0,0,1-2.26-9.47l.24-.12a5,5,0,0,1,4.55,8.91l-.28.14A5.1,5.1,0,0,1,636.05,251.12Z"/><path id="d-tl7" class="cls-4" d="M796.8,247.67a4.94,4.94,0,0,1-2.11-.47l-.21-.1a5,5,0,1,1,4.11-9.11l.33.14a5,5,0,0,1-2.12,9.54Z"/><path id="d-cam1" class="cls-4" d="M665.08,570.61a5.08,5.08,0,0,1-1.66-.28l-.14-.05a5,5,0,1,1,1.8.33Z"/><path id="d-cam2" class="cls-4" d="M777.89,569.51a5,5,0,0,1-2-9.58l.39-.16a5,5,0,0,1,3.42,9.4A5,5,0,0,1,777.89,569.51Z"/><path id="d-cam3" class="cls-4" d="M578,499a5.07,5.07,0,0,1-4.34-2.46l-.1-.17a5,5,0,1,1,7,1.92A4.88,4.88,0,0,1,578,499Z"/><path id="d-cam4" class="cls-4" d="M863.64,496.21a5,5,0,0,1-4.41-7.39l.08-.14a.41.41,0,0,1,.05-.09l0-.08a5,5,0,0,1,8.72,4.91h0c0,.07-.07.13-.1.19A4.94,4.94,0,0,1,863.64,496.21Z"/><path id="d-cam5" class="cls-4" d="M557.19,388a4.84,4.84,0,0,1-.84-.07,5,5,0,0,1-4.09-5.73.29.29,0,0,1,0-.09,5,5,0,1,1,4.91,5.89Z"/><path id="d-cam6" class="cls-4" d="M882.18,384.69a5,5,0,0,1-4.86-3.86,2.2,2.2,0,0,1-.07-.37,5,5,0,1,1,4.93,4.23Z"/><path id="d-cam7" class="cls-4" d="M612.65,289.63a5,5,0,0,1-3.27-8.77l.07-.05a5,5,0,0,1,6.46,7.63A5,5,0,0,1,612.65,289.63Z"/><path id="d-cam8" class="cls-4" d="M824.79,287.52a5,5,0,1,1,3.05-9l.21.17a5,5,0,0,1-3.26,8.79Z"/><path id="d-bur1" class="cls-4" d="M723.55,559.94a5,5,0,1,1,.35,0Z"/><path id="d-bur2" class="cls-4" d="M637.54,535a5,5,0,1,1,2.53-9.31l.38.25a5,5,0,0,1-2.91,9.06Z"/><path id="d-bur3" class="cls-4" d="M807.85,529.57a5,5,0,1,1,3.12-1.1l-.08.07A5,5,0,0,1,807.85,529.57Z"/><path id="d-bur4" class="cls-4" d="M582.59,464.17a5,5,0,0,1-4.66-3.23l0-.13a5,5,0,1,1,4.71,3.36Z"/><path id="d-bur5" class="cls-4" d="M858.21,455.49a5.15,5.15,0,0,1-1.22-.15,5,5,0,0,1-3.64-6.06l.07-.25,0-.08a.62.62,0,0,1,0-.1,5,5,0,0,1,9.6,2.78,1.54,1.54,0,0,1-.05.17h0A5,5,0,0,1,858.21,455.49Z"/><path id="d-bur6" class="cls-4" d="M579.76,374.65a5,5,0,1,1,4.86-3.84c0,.07,0,.19-.07.25A5,5,0,0,1,579.76,374.65Z"/><path id="d-bur7" class="cls-4" d="M855.37,365.77A5,5,0,1,1,860,359a.78.78,0,0,1,.05.14,5,5,0,0,1-3.05,6.38A4.84,4.84,0,0,1,855.37,365.77Z"/><path id="d-bur8" class="cls-4" d="M630.06,300.49a5,5,0,0,1-3.11-8.9l.08-.07a5,5,0,0,1,6.1,7.93A5.06,5.06,0,0,1,630.06,300.49Z"/><path id="d-bur9" class="cls-4" d="M800.41,295a5,5,0,0,1-2.56-.71l-.38-.25a5,5,0,1,1,2.94,1Z"/><path id="d-br1" class="cls-4" d="M719.77,540h0a5,5,0,1,1,5-5A5,5,0,0,1,719.72,540Z"/><path id="d-br2" class="cls-4" d="M800.1,510.93a5,5,0,1,1,3.26-1.21l-.06,0A5,5,0,0,1,800.1,510.93Z"/><path id="d-br3" class="cls-4" d="M639.52,510.58h0a5,5,0,1,1,5-5A5,5,0,0,1,639.47,510.58Z"/><path id="d-br4" class="cls-4" d="M843,437a5.45,5.45,0,0,1-.89-.08,5,5,0,0,1-4-5.78s0-.08,0-.1h0s0-.07,0-.1a.36.36,0,0,0,0-.1,5,5,0,0,1,9.83,1.84h0s0,0,0,.05l0,.15h0A5,5,0,0,1,843,437Z"/><path id="d-br5" class="cls-4" d="M596.85,436.5a5,5,0,0,1-4.9-4.06.44.44,0,0,0,0-.1,5,5,0,1,1,5.83,4.08A5.69,5.69,0,0,1,596.85,436.5Z"/><path id="d-br6" class="cls-4" d="M832.62,345.12a5,5,0,0,1-4.28,7.54,5.05,5.05,0,0,1-4.33-2.45l-.08-.13a5,5,0,0,1,8.69-5"/><path id="d-br7" class="cls-4" d="M611.83,352.39a4.94,4.94,0,0,1-2.5-.67,5,5,0,0,1-1.84-6.84l.08-.14a5,5,0,1,1,4.26,7.65Z"/><path id="d-br8" class="cls-4" d="M762.91,297.61a5.19,5.19,0,0,1-1.59-.26l-.22-.08a5,5,0,1,1,1.81.34Z"/><path id="d-br9" class="cls-4" d="M677.39,297.5a5,5,0,0,1-1.86-9.64l.41-.15a5,5,0,0,1,3.19,9.48A5.07,5.07,0,0,1,677.39,297.5Z"/></g></svg>