<svg id="Layer_2" data-name="Layer 2" xmlns="http://www.w3.org/2000/svg" viewBox="0 0 708.57 708.57"><defs><style>.cls-1,.cls-3{fill:none;}.cls-1,.cls-2,.cls-3{stroke:#fff;stroke-miterlimit:10;}.cls-1{stroke-linecap:round;}.cls-1,.cls-2{stroke-width:0.5px;}.cls-3{stroke-width:0.7px;}.cls-4{fill:#fff;}</style></defs><circle class="cls-1" cx="354.29" cy="354.29" r="287.99"/><circle class="cls-1" cx="354.29" cy="354.29" r="343.7"/><circle class="cls-1" cx="354.29" cy="354.29" r="354.04"/><path id="coins" class="cls-2" d="M353.79,646a4,4,0,1,1,0-8h.4a4,4,0,0,1,0,8Zm18.08-.55a4,4,0,0,1-.23-8l.37,0a4,4,0,0,1,.52,8l-.42,0Zm-35.76,0h-.23l-.4,0a4,4,0,1,1,.47-8l.4,0a4,4,0,0,1-.24,8Zm53.76-1.66a4,4,0,0,1-.51-8l.42-.05a4,4,0,0,1,1,7.93l-.38,0A3,3,0,0,1,389.87,643.82Zm-71.76,0a2.81,2.81,0,0,1-.5,0l-.4,0a4,4,0,1,1,1-7.93l.39.05a4,4,0,0,1-.48,8ZM407.74,641a4,4,0,0,1-.72-7.93l.37-.07a4,4,0,0,1,1.5,7.85l-.42.08A4.51,4.51,0,0,1,407.74,641Zm-107.5,0a4,4,0,0,1-.76-.07l-.36-.07a4,4,0,1,1,1.45-7.86l.42.08a4,4,0,0,1-.75,7.92Zm125.16-3.89a4,4,0,0,1-1-7.87l.41-.1a4,4,0,0,1,2,7.74l-.37.1A4.37,4.37,0,0,1,425.4,637.12Zm-142.82,0a4.19,4.19,0,0,1-1-.12l-.39-.1a4,4,0,1,1,2-7.74l.38.09a4,4,0,0,1-1,7.87Zm160.2-5a4,4,0,0,1-1.22-7.8l.36-.11a4,4,0,1,1,2.48,7.59l-.4.13A4,4,0,0,1,442.78,632.09Zm-177.58,0a4.06,4.06,0,0,1-1.23-.2l-.37-.12a4,4,0,0,1,2.44-7.61l.4.13a4,4,0,0,1-1.24,7.8ZM459.81,626a4,4,0,0,1-1.45-7.72l.34-.13a4,4,0,1,1,3,7.42l-.4.16A4.13,4.13,0,0,1,459.81,626Zm-211.66,0a4,4,0,0,1-1.47-.28l-.38-.15a4,4,0,1,1,2.95-7.43l.37.15a4,4,0,0,1-1.47,7.71Zm228.24-7.12a4,4,0,0,1-1.72-7.61L475,611a4,4,0,1,1,3.4,7.23l-.34.16A3.91,3.91,0,0,1,476.39,618.82Zm-244.87-.08a4,4,0,0,1-1.7-.38l-.34-.16a4,4,0,1,1,3.37-7.25l.38.18a4,4,0,0,1-1.71,7.61Zm261-8.11a4,4,0,0,1-1.94-7.5l.36-.19a4,4,0,0,1,3.85,7l-.34.18A4,4,0,0,1,492.49,610.63Zm-277.1-.11a4,4,0,0,1-1.92-.49l-.36-.21a4,4,0,1,1,3.86-7l.34.19a4,4,0,0,1-1.92,7.5Zm292.66-9.09a4,4,0,0,1-2.14-7.37l.32-.21a4,4,0,1,1,4.29,6.74l-.34.22A4,4,0,0,1,508.05,601.43Zm-308.24-.14a4,4,0,0,1-2.13-.61l-.34-.22a4,4,0,0,1,4.27-6.75l.34.21a4,4,0,0,1-2.14,7.37Zm323.19-10a4,4,0,0,1-2.35-7.23l.31-.23a4,4,0,0,1,4.72,6.46l-.34.24A4,4,0,0,1,523,591.28Zm-338.16-.17a3.94,3.94,0,0,1-2.34-.76l-.34-.24a4,4,0,0,1,4.72-6.45l.31.22a4,4,0,0,1-2.35,7.23Zm352.45-10.9a4,4,0,0,1-2.55-7.07l.32-.27a4,4,0,0,1,5.08,6.17l-.29.24A4,4,0,0,1,537.29,580.21ZM170.55,580a4,4,0,0,1-2.56-.93l-.28-.23a4,4,0,0,1,5.06-6.18l.33.27a4,4,0,0,1-2.55,7.07Zm380.32-11.76a4,4,0,0,1-2.74-6.9l.3-.28a4,4,0,1,1,5.46,5.83l-.28.26A4,4,0,0,1,550.87,568.26ZM157,568.05a4,4,0,0,1-2.74-1.09l-.28-.26a4,4,0,1,1,5.46-5.83l.3.28a4,4,0,0,1-2.74,6.9Zm406.7-12.56a4,4,0,0,1-2.92-6.73l.29-.3a4,4,0,1,1,5.81,5.49l-.26.27A4,4,0,0,1,563.68,555.49Zm-419.5-.22a4,4,0,0,1-2.91-1.26l-.27-.29a4,4,0,0,1,5.81-5.48l.28.29a4,4,0,0,1-2.91,6.74Zm431.49-13.33a4,4,0,0,1-3.09-6.52l.27-.34a4,4,0,0,1,6.15,5.11l-.24.29A4,4,0,0,1,575.67,541.94Zm-443.46-.23a4,4,0,0,1-3.07-1.44l-.26-.31a4,4,0,0,1,6.15-5.11l.25.31a4,4,0,0,1-3.07,6.55Zm454.58-14a4,4,0,0,1-2.37-.78,4,4,0,0,1-.84-5.59l.21-.3a4,4,0,1,1,6.47,4.69L590,526A4,4,0,0,1,586.79,527.67Zm-465.68-.23a4,4,0,0,1-3.23-1.64l-.24-.34a4,4,0,1,1,6.47-4.68l.23.31a4,4,0,0,1-3.23,6.35ZM597,512.72a4,4,0,0,1-3.37-6.13l.22-.35a4,4,0,1,1,6.73,4.3l-.2.32A4,4,0,0,1,597,512.72Zm-486.07-.22a4,4,0,0,1-3.37-1.85l-.21-.33a4,4,0,1,1,6.73-4.3l.22.34a4,4,0,0,1-3.37,6.14Zm495.32-15.34a4,4,0,0,1-3.49-5.93l.19-.34a4,4,0,1,1,7,3.85l-.2.36A4,4,0,0,1,606.25,497.16ZM101.71,497a4,4,0,0,1-3.5-2.07l-.19-.34a4,4,0,1,1,7-3.87l.2.36a4,4,0,0,1-3.5,5.92ZM614.51,481a4,4,0,0,1-3.62-5.68l.18-.39a4,4,0,1,1,7.22,3.43l-.15.33A4,4,0,0,1,614.51,481Zm-521-.16a4,4,0,0,1-3.61-2.3l-.17-.35a4,4,0,1,1,7.22-3.42l.18.37a4,4,0,0,1-1.92,5.32A4.12,4.12,0,0,1,93.48,480.88Zm528.26-16.45A4,4,0,0,1,618,459l.15-.37a4,4,0,0,1,7.43,2.94l-.15.38A4,4,0,0,1,621.74,464.43Zm-535.45-.12a4,4,0,0,1-3.71-2.51l-.15-.38a4,4,0,1,1,7.42-2.95l.15.37A4,4,0,0,1,87.77,464,4.08,4.08,0,0,1,86.29,464.31ZM627.9,447.39a3.93,3.93,0,0,1-1.22-.19,4,4,0,0,1-2.59-5l.13-.39a4,4,0,1,1,7.6,2.47l-.12.37A4,4,0,0,1,627.9,447.39ZM80.14,447.3a4,4,0,0,1-3.79-2.75l-.13-.4a4,4,0,0,1,7.61-2.45l.11.36a4,4,0,0,1-2.55,5A3.89,3.89,0,0,1,80.14,447.3ZM633,430a3.94,3.94,0,0,1-1-.13,4,4,0,0,1-2.86-4.87l.1-.36a4,4,0,1,1,7.74,2l-.11.41A4,4,0,0,1,633,430Zm-557.87-.09a4,4,0,0,1-3.87-3l-.09-.36a4,4,0,0,1,7.73-2l.1.41a4,4,0,0,1-2.88,4.86A4.32,4.32,0,0,1,75.09,429.93Zm561.82-17.56a4.37,4.37,0,0,1-.72-.06,4,4,0,0,1-3.21-4.66l.08-.42a4,4,0,1,1,7.85,1.51l-.07.36A4,4,0,0,1,636.91,412.37Zm-565.77-.09A4,4,0,0,1,67.22,409l-.08-.4A4,4,0,1,1,75,407.15l.08.38a4,4,0,0,1-3.93,4.75Zm568.61-17.77a4.19,4.19,0,0,1-.5,0,4,4,0,0,1-3.47-4.46l.05-.39a4,4,0,1,1,7.92,1l0,.4A4,4,0,0,1,639.75,394.51Zm-571.44-.09a4,4,0,0,1-4-3.5l0-.38a4,4,0,0,1,7.92-1l0,.42a4,4,0,0,1-3.47,4.46A4.19,4.19,0,0,1,68.31,394.42ZM641.45,376.5h-.24a4,4,0,0,1-3.75-4.23l0-.42a4,4,0,1,1,8,.52l0,.37A4,4,0,0,1,641.45,376.5Zm-574.83-.09a4,4,0,0,1-4-3.73l0-.42a4,4,0,1,1,8-.47l0,.37a4,4,0,0,1-3.73,4.24Zm575.41-18a4,4,0,0,1-4-4V354s0-.07,0-.11,0-.05,0-.07v-.42a4,4,0,1,1,8,0v1A4,4,0,0,1,642,358.43Zm-576-.1a4,4,0,0,1-4-4v-.4a4,4,0,1,1,8,0v.4A4,4,0,0,1,66,358.33Zm.54-18.07h-.23A4,4,0,0,1,62.59,336l0-.43a4,4,0,0,1,8,.52l0,.37A4,4,0,0,1,66.58,340.26Zm574.88-.51a4,4,0,0,1-4-3.74l0-.4a4,4,0,1,1,8-.51l0,.4a4,4,0,0,1-3.73,4.24ZM68.25,322.25a4.19,4.19,0,0,1-.5,0,4,4,0,0,1-3.47-4.46l0-.4a4,4,0,0,1,7.93,1l-.05.39A4,4,0,0,1,68.25,322.25Zm571.51-.51a4,4,0,0,1-4-3.48l0-.42a4,4,0,0,1,7.93-1l.05.37a4,4,0,0,1-3.45,4.48A4.53,4.53,0,0,1,639.76,321.74ZM71,304.38a4.88,4.88,0,0,1-.76-.07,4,4,0,0,1-3.17-4.68l.07-.37A4,4,0,1,1,75,300.72l-.07.41A4,4,0,0,1,71,304.38Zm565.9-.5a4,4,0,0,1-3.92-3.25l-.07-.39a4,4,0,1,1,7.84-1.5l.08.39a4,4,0,0,1-3.17,4.68A5,5,0,0,1,636.94,303.88Zm-562-17.16a3.79,3.79,0,0,1-1-.13,4,4,0,0,1-2.88-4.85l.1-.39a4,4,0,1,1,7.74,2l-.1.39A4,4,0,0,1,74.94,286.72ZM633,286.23a4,4,0,0,1-3.86-3l-.1-.39a4,4,0,0,1,7.73-2l.1.38A4,4,0,0,1,634,286.1,4.46,4.46,0,0,1,633,286.23ZM80,269.32a4,4,0,0,1-3.79-5.21v-.05l.1-.31a4,4,0,0,1,7.62,2.43l-.12.35A4,4,0,0,1,80,269.32Zm548-.46a4,4,0,0,1-3.8-2.75l-.12-.38a4,4,0,1,1,7.59-2.49l.12.38a4,4,0,0,1-2.55,5A4.12,4.12,0,0,1,628,268.86ZM86.08,252.28A4.08,4.08,0,0,1,84.6,252a4,4,0,0,1-2.24-5.18l.14-.35a4,4,0,1,1,7.44,2.9l-.15.39A4,4,0,0,1,86.08,252.28Zm535.74-.44a4,4,0,0,1-3.71-2.51L618,249a4,4,0,0,1,7.42-3l.15.37a4,4,0,0,1-2.23,5.19A4,4,0,0,1,621.82,251.84ZM93.26,235.66A4,4,0,0,1,89.65,230l.16-.34A4,4,0,1,1,97.05,233l-.18.38A4,4,0,0,1,93.26,235.66Zm521.38-.38A4,4,0,0,1,611,233l-.17-.36a4,4,0,0,1,7.21-3.44l.17.36a4,4,0,0,1-3.6,5.72ZM101.47,219.52a3.89,3.89,0,0,1-1.91-.5A4,4,0,0,1,98,213.6l.21-.37a4,4,0,1,1,7,3.88l-.18.33A4,4,0,0,1,101.47,219.52Zm504.95-.33a4,4,0,0,1-3.51-2.07l-.19-.34a4,4,0,0,1,7-3.87l.19.35a4,4,0,0,1-1.57,5.43A3.93,3.93,0,0,1,606.42,219.19ZM110.69,203.93a4,4,0,0,1-3.37-6.13l.22-.35a4,4,0,1,1,6.73,4.3l-.2.32A4,4,0,0,1,110.69,203.93Zm486.51-.29a4,4,0,0,1-3.37-1.83l-.22-.35a4,4,0,1,1,6.74-4.29l.21.32a4,4,0,0,1-1.21,5.52A4,4,0,0,1,597.2,203.64ZM120.86,189a3.94,3.94,0,0,1-2.34-.76,4,4,0,0,1-.89-5.58l.25-.34a4,4,0,1,1,6.44,4.73l-.22.3A4,4,0,0,1,120.86,189ZM587,188.71a4,4,0,0,1-3.22-1.63l-.25-.34A4,4,0,0,1,590,182l.21.3a4,4,0,0,1-3.21,6.37ZM132,174.66a3.93,3.93,0,0,1-2.54-.92,4,4,0,0,1-.53-5.62l.24-.3a4,4,0,0,1,6.18,5.07l-.27.32A4,4,0,0,1,132,174.66Zm444-.23a4,4,0,0,1-3.08-1.45l-.25-.3a4,4,0,1,1,6.14-5.11l.26.31a4,4,0,0,1-.53,5.63A4,4,0,0,1,575.93,174.43Zm-432-13.35a3.94,3.94,0,0,1-2.73-1.08,4,4,0,0,1-.19-5.64l.27-.29a4,4,0,0,1,5.85,5.45l-.28.3A4,4,0,0,1,143.91,161.08ZM564,160.87a4,4,0,0,1-2.91-1.26l-.27-.29a4,4,0,0,1,5.81-5.48l.28.3a4,4,0,0,1-2.91,6.73ZM156.69,148.28a4,4,0,0,1-2.91-1.26,4,4,0,0,1,.17-5.65l.29-.27a4,4,0,0,1,5.48,5.82l-.29.27A4,4,0,0,1,156.69,148.28Zm394.48-.2a4,4,0,0,1-2.73-1.08l-.3-.28a4,4,0,1,1,5.47-5.82l.28.26a4,4,0,0,1-2.72,6.92ZM170.24,136.3a4,4,0,0,1-2.55-7.07L168,129a4,4,0,0,1,5.1,6.16l-.31.25A4,4,0,0,1,170.24,136.3Zm367.36-.19a4,4,0,0,1-2.55-.92l-.31-.25a4,4,0,1,1,5.1-6.16l.3.25a4,4,0,0,1-2.54,7.08ZM184.51,125.19a4,4,0,0,1-2.36-7.22l.34-.24a4,4,0,0,1,4.68,6.47l-.31.23A4,4,0,0,1,184.51,125.19ZM523.3,125a4,4,0,0,1-2.35-.77l-.31-.23a4,4,0,0,1,4.69-6.47l.34.25A4,4,0,0,1,523.3,125ZM199.44,115a4,4,0,0,1-2.15-7.36l.35-.22a4,4,0,0,1,4.27,6.75l-.32.2A3.93,3.93,0,0,1,199.44,115Zm308.9-.18a4,4,0,0,1-2.14-.62l-.34-.22a4,4,0,1,1,4.29-6.74l.34.22a4,4,0,0,1-2.15,7.36Zm-293.36-9a4,4,0,0,1-1.93-7.49l.35-.19a4,4,0,0,1,3.85,7l-.35.19A3.92,3.92,0,0,1,215,105.77Zm277.78-.18a4,4,0,0,1-1.94-.5l-.32-.18a4,4,0,0,1,3.83-7l.38.21a4,4,0,0,1-1.95,7.48Zm-261.7-8a4,4,0,0,1-1.72-7.61l.38-.17A4,4,0,0,1,233.11,97l-.34.16A3.91,3.91,0,0,1,231.06,97.54Zm245.58-.18a4,4,0,0,1-1.71-.38l-.35-.16A4,4,0,0,1,478,89.58l.38.18a4,4,0,0,1-1.71,7.6Zm-229-7a4,4,0,0,1-1.48-7.71l.39-.15a4,4,0,0,1,2.92,7.43l-.35.14A3.9,3.9,0,0,1,247.62,90.34ZM460,90.16a4.08,4.08,0,0,1-1.48-.28l-.36-.14a4,4,0,0,1,2.93-7.44l.38.15A4,4,0,0,1,460,90.16Zm-195.4-6a4,4,0,0,1-1.24-7.8l.38-.12a4,4,0,1,1,2.48,7.6l-.37.12A4.18,4.18,0,0,1,264.62,84.19ZM443,84a3.89,3.89,0,0,1-1.25-.2l-.36-.12a4,4,0,1,1,2.45-7.6l.4.13A4,4,0,0,1,443,84ZM282,79.12a4,4,0,0,1-1-7.86l.4-.1a4,4,0,1,1,2,7.74L283,79A4.34,4.34,0,0,1,282,79.12ZM425.59,79a3.87,3.87,0,0,1-1-.13l-.37-.1a4,4,0,1,1,2-7.74l.4.1a4,4,0,0,1-1,7.87Zm-126-3.83a4,4,0,0,1-.74-7.92l.4-.08A4,4,0,1,1,300.77,75l-.38.08A4.88,4.88,0,0,1,299.63,75.17Zm108.31-.1a3.81,3.81,0,0,1-.75-.07l-.39-.07a4,4,0,0,1,1.48-7.85l.4.07a4,4,0,0,1-.74,7.92Zm-90.45-2.74a4,4,0,0,1-.49-8l.41-.05a4,4,0,0,1,1,7.93l-.38,0A4.36,4.36,0,0,1,317.49,72.33Zm72.58-.06a4,4,0,0,1-.49,0l-.4,0a4,4,0,0,1,1-7.93l.4,0a4,4,0,0,1-.49,8ZM335.5,70.62a4,4,0,0,1-.25-8l.41,0a4,4,0,0,1,.49,8l-.39,0Zm36.56,0h-.25l-.4,0a4,4,0,0,1,.5-8l.4,0a4,4,0,0,1-.25,8ZM353.58,70a4,4,0,0,1,0-8H354a4,4,0,1,1,0,8h-.4Z" transform="translate(0.25 0.25)"/><line class="cls-3" x1="708.17" y1="354.29" x2="697.75" y2="354.29"/><line class="cls-3" x1="703.82" y1="409.65" x2="693.52" y2="408.02"/><line class="cls-3" x1="690.85" y1="463.64" x2="680.94" y2="460.42"/><line class="cls-3" x1="669.6" y1="514.95" x2="660.31" y2="510.21"/><line class="cls-3" x1="640.59" y1="562.3" x2="632.15" y2="556.17"/><line class="cls-3" x1="604.52" y1="604.52" x2="597.15" y2="597.15"/><line class="cls-3" x1="562.3" y1="640.59" x2="556.17" y2="632.15"/><line class="cls-3" x1="514.95" y1="669.6" x2="510.21" y2="660.31"/><line class="cls-3" x1="463.64" y1="690.85" x2="460.42" y2="680.94"/><line class="cls-3" x1="409.65" y1="703.82" x2="408.02" y2="693.52"/><line class="cls-3" x1="354.29" y1="708.17" x2="354.29" y2="697.75"/><line class="cls-3" x1="298.93" y1="703.82" x2="300.56" y2="693.52"/><line class="cls-3" x1="244.93" y1="690.85" x2="248.15" y2="680.94"/><line class="cls-3" x1="193.62" y1="669.6" x2="198.36" y2="660.31"/><line class="cls-3" x1="146.27" y1="640.59" x2="152.4" y2="632.15"/><line class="cls-3" x1="104.05" y1="604.52" x2="111.42" y2="597.15"/><line class="cls-3" x1="67.98" y1="562.3" x2="76.42" y2="556.17"/><line class="cls-3" x1="38.97" y1="514.95" x2="48.26" y2="510.21"/><line class="cls-3" x1="17.72" y1="463.64" x2="27.63" y2="460.42"/><line class="cls-3" x1="4.75" y1="409.65" x2="15.05" y2="408.02"/><line class="cls-3" x1="0.4" y1="354.29" x2="10.82" y2="354.29"/><line class="cls-3" x1="4.75" y1="298.93" x2="15.05" y2="300.56"/><line class="cls-3" x1="17.72" y1="244.93" x2="27.63" y2="248.15"/><line class="cls-3" x1="38.97" y1="193.62" x2="48.26" y2="198.36"/><line class="cls-3" x1="67.98" y1="146.27" x2="76.42" y2="152.4"/><line class="cls-3" x1="104.05" y1="104.05" x2="111.42" y2="111.42"/><line class="cls-3" x1="146.27" y1="67.98" x2="152.4" y2="76.42"/><line class="cls-3" x1="193.62" y1="38.97" x2="198.36" y2="48.26"/><line class="cls-3" x1="244.93" y1="17.72" x2="248.15" y2="27.63"/><line class="cls-3" x1="298.93" y1="4.75" x2="300.56" y2="15.05"/><line class="cls-3" x1="354.29" y1="0.4" x2="354.29" y2="10.82"/><line class="cls-3" x1="409.65" y1="4.75" x2="408.02" y2="15.05"/><line class="cls-3" x1="463.64" y1="17.72" x2="460.42" y2="27.63"/><line class="cls-3" x1="514.95" y1="38.97" x2="510.21" y2="48.26"/><line class="cls-3" x1="562.3" y1="67.98" x2="556.17" y2="76.42"/><line class="cls-3" x1="604.52" y1="104.05" x2="597.15" y2="111.42"/><line class="cls-3" x1="640.59" y1="146.27" x2="632.15" y2="152.4"/><line class="cls-3" x1="669.6" y1="193.62" x2="660.31" y2="198.36"/><line class="cls-3" x1="690.85" y1="244.93" x2="680.94" y2="248.15"/><line class="cls-3" x1="703.82" y1="298.93" x2="693.52" y2="300.56"/><line class="cls-3" x1="708.17" y1="354.29" x2="697.75" y2="354.29"/><circle class="cls-1" cx="354.29" cy="354.29" r="229.98"/><circle class="cls-1" cx="354.29" cy="354.29" r="183.64"/><circle class="cls-4" cx="354.29" cy="354.29" r="39.87"/><circle class="cls-1" cx="354.29" cy="354.29" r="236.89"/><line class="cls-3" x1="591.08" y1="354.16" x2="584.1" y2="354.17"/><line class="cls-3" x1="553.55" y1="482.21" x2="547.68" y2="478.44"/><line class="cls-3" x1="452.74" y1="569.64" x2="449.84" y2="563.29"/><line class="cls-3" x1="320.68" y1="588.68" x2="321.67" y2="581.77"/><line class="cls-3" x1="199.28" y1="533.29" x2="203.85" y2="528.02"/><line class="cls-3" x1="127.11" y1="421.06" x2="133.8" y2="419.1"/><line class="cls-3" x1="127.07" y1="287.63" x2="133.76" y2="289.59"/><line class="cls-3" x1="199.19" y1="175.36" x2="203.76" y2="180.63"/><line class="cls-3" x1="320.55" y1="119.91" x2="321.55" y2="126.81"/><line class="cls-3" x1="452.63" y1="138.88" x2="449.73" y2="145.23"/><line class="cls-3" x1="553.48" y1="226.26" x2="547.61" y2="230.03"/><line class="cls-3" x1="591.08" y1="354.29" x2="584.1" y2="354.29"/></svg>