<svg id="repostion" xmlns="http://www.w3.org/2000/svg" viewBox="0 0 1440 820">
  <defs>
    <style>.cls-1{stroke:#fff;stroke-miterlimit:10;stroke-width:0.5px;}.cls-2{fill:#fff;}</style>
  </defs>

  <g id="new_dots" data-name="new dots">
    <path id="viet1" class="cls-1" d="M722.4,741h-.19a5,5,0,0,1-5-4.85,5,5,0,0,1,4.88-5.15h.25a5,5,0,0,1,0,10"/>
    <path id="viet2" class="cls-1" d="M512.88,666.7a5,5,0,0,1-3.14-1.11l-.17-.14a5,5,0,1,1,3.31,1.25Z"/>
    <path id="viet3" class="cls-1" d="M933.85,662.09a5.08,5.08,0,0,1-3.29,1.23,5,5,0,0,1-3.31-8.73l.14-.13a5,5,0,1,1,6.46,7.63"/>
    <path id="viet4" class="cls-1" d="M400.06,475.08a5,5,0,0,1-4.89-4.06l0-.1A5,5,0,1,1,401,475,4.68,4.68,0,0,1,400.06,475.08Z"/>
    <path id="viet5" class="cls-1" d="M1040.23,470.08a4.68,4.68,0,0,1-.74-.05,5,5,0,0,1-4.22-5.72l0-.26,0-.15v-.13l.05-.26a5,5,0,1,1,9.84,1.78h0c0,.09,0,.19,0,.28a1.87,1.87,0,0,0,0,.25h0A4.94,4.94,0,0,1,1040.23,470.08Z"/>
    <path id="viet6" class="cls-1" d="M436.82,255.86a4.91,4.91,0,0,1-2.52-.69,5,5,0,1,1,7-2l-.14.26A5,5,0,0,1,436.82,255.86Z"/>
    <path id="viet7" class="cls-1" d="M999.77,251a5,5,0,0,1-2.56-9.36,5,5,0,0,1,6.81,1.74l.05.09a5,5,0,0,1-1.78,6.84A4.94,4.94,0,0,1,999.77,251Z"/>
    <path id="viet8" class="cls-1" d="M605.92,111.5a5,5,0,0,1-1.83-9.66l.27-.1a5,5,0,0,1,3.32,9.44A5.2,5.2,0,0,1,605.92,111.5Z"/>
    <path id="viet9" class="cls-1" d="M828.26,109.56a5,5,0,1,1,1.54-9.76l.27.1a5,5,0,0,1-1.81,9.66Z"/>

    <path id="thai1" class="cls-1" d="M717.38,720.87l-.31,0h-.26a5,5,0,1,1,.57,0Z"/>
    <path id="thai2" class="cls-1" d="M897.36,664.09A5,5,0,0,1,894.1,655a5,5,0,0,1,7,1.15,5,5,0,0,1-1.14,7l-.08,0A4.93,4.93,0,0,1,897.36,664.09Z"/>
    <path id="thai3" class="cls-1" d="M538.77,662a5,5,0,0,1-3.3-.94l-.17-.13a5,5,0,1,1,3.47,1.07Z"/>
    <path id="thai4" class="cls-1" d="M1010.17,511.5a4.88,4.88,0,0,1-1.95-.25,5,5,0,0,1-3.15-6.33l.06-.15a1.66,1.66,0,0,1,.06-.21,5,5,0,0,1,6.31-3.2,5,5,0,0,1,3.22,6.22s0,.15-.05.17a.56.56,0,0,0,0,.12.14.14,0,0,0,0,.07l-.06.17A5,5,0,0,1,1010.17,511.5Z"/>
    <path id="thai5" class="cls-1" d="M429.44,509.16a5,5,0,0,1-5.12-3.44l-.06-.2a5,5,0,1,1,6.37,3.4A4.93,4.93,0,0,1,429.44,509.16Z"/>
    <path id="thai6" class="cls-1" d="M1010.25,322.28a5,5,0,1,1,4.37-6.64l.06.2a5,5,0,0,1-3.33,6.24A4.72,4.72,0,0,1,1010.25,322.28Z"/>
    <path id="thai7" class="cls-1" d="M430.2,320.9a5.06,5.06,0,0,1-1.88-.23,5,5,0,0,1-3.23-6.23l.06-.17a5,5,0,0,1,9.48,3.2A5.09,5.09,0,0,1,430.2,320.9Z"/>
    <path id="thai8" class="cls-1" d="M899.12,169.29a5,5,0,1,1,2.5-9.09l.17.12a5,5,0,0,1-2.67,9Z"/>
    <path id="thai9" class="cls-1" d="M540.05,169.62a5,5,0,0,1-3.31-9l.08-.06a5,5,0,1,1,3.23,9.07Z"/>

    <path id="d-sg1" class="cls-1" d="M636,688.4a5,5,0,0,1-1.47-.22l-.3-.1a5,5,0,1,1,3-9.55l.27.08A5,5,0,0,1,636,688.4Z"/>
    <path id="d-sg2" class="cls-1" d="M813,685.22a5,5,0,0,1-1.63-9.73l.26-.09a5,5,0,0,1,3.31,9.44l-.32.1A4.8,4.8,0,0,1,813,685.22Z"/>
    <path id="d-sg3" class="cls-1" d="M491.14,586.16a5,5,0,0,1-4-2l-.17-.23a5,5,0,1,1,8-6l.18.25a5,5,0,0,1-4,8Z"/>
    <path id="d-sg4" class="cls-1" d="M954.15,578a5,5,0,0,1-4.13-7.82l.19-.27a5,5,0,0,1,8.23,5.68l-.16.23A5,5,0,0,1,954.15,578Z"/>
    <path id="d-sg5" class="cls-1" d="M1004.67,420.39h-.1a5,5,0,0,1-4.9-5.09V415a5,5,0,0,1,5-5h.05a5,5,0,0,1,5,5.05v.35A5,5,0,0,1,1004.67,420.39Z"/>
    <path id="d-sg6" class="cls-1" d="M434.81,418a5,5,0,0,1-5-5v-.35a5,5,0,0,1,10,0V413a5,5,0,0,1-4.95,5.05Z"/>
    <path id="d-sg7" class="cls-1" d="M952.18,251a5,5,0,0,1-4-2.07l-.14-.19a5.05,5.05,0,0,1,1.14-7,5,5,0,0,1,6.94,1.13l.16.22a5,5,0,0,1-4.05,7.93Z"/>
    <path id="d-sg8" class="cls-1" d="M488.75,249.17a5,5,0,0,1-4.05-7.93l.18-.25a5,5,0,1,1,8.1,5.86l-.18.25A5,5,0,0,1,488.75,249.17Z"/>
    <path id="d-sg9" class="cls-1" d="M809.66,145.52a5,5,0,0,1-1.61-.27l-.24-.08a5,5,0,1,1,3.13-9.49l.33.11a5,5,0,0,1-1.61,9.73Z"/>
    <path id="d-sg10" class="cls-1" d="M632.08,144.85a5,5,0,0,1-1.51-9.77l.23-.07a5,5,0,0,1,3.13,9.5l-.35.11A4.93,4.93,0,0,1,632.08,144.85Z"/>

    <path id="d-ph1" class="cls-1" d="M722.61,681a5,5,0,0,1-.07-10h.27a5,5,0,0,1,.07,10h-.27Z"/>
    <path id="d-ph2" class="cls-1" d="M599.29,652a5,5,0,0,1-2.19-.52l-.15-.08a5,5,0,0,1-2.21-6.74,5,5,0,0,1,6.69-2.2,5.07,5.07,0,0,1,2.31,6.74A5,5,0,0,1,599.29,652Z"/>
    <path id="d-ph3" class="cls-1" d="M845.43,649.3a5,5,0,0,1-2.35-9.41l.14-.08A5,5,0,0,1,848,648.6l-.21.11A5,5,0,0,1,845.43,649.3Z"/>
    <path id="d-ph4" class="cls-1" d="M503.41,569.08a5,5,0,0,1-4.09-2.11l-.11-.16a5,5,0,0,1,8.16-5.79l.11.16a5,5,0,0,1-4.07,7.9Z"/>
    <path id="d-ph5" class="cls-1" d="M939.4,564.16a5,5,0,0,1-4.14-7.79l.12-.18,0,0a.56.56,0,0,0,.05-.08,5,5,0,0,1,6.95-1.45,5,5,0,0,1,1.45,6.89l-.16.23,0,0-.1.15A5,5,0,0,1,939.4,564.16Z"/>
    <path id="d-ph6" class="cls-1" d="M457.09,451a5,5,0,0,1-4.95-4.34l0-.19a5,5,0,1,1,9.91-1.35l0,.21a5,5,0,0,1-4.28,5.62A5.19,5.19,0,0,1,457.09,451Z"/>
    <path id="d-ph7" class="cls-1" d="M983.2,444.86c-.2,0-.4,0-.61,0a5,5,0,0,1-4.36-5.57l0-.11a5,5,0,1,1,9.94,1l0,.28A5,5,0,0,1,983.2,444.86Z"/>
    <path id="d-ph8" class="cls-1" d="M470.84,324.94a5,5,0,0,1-4.7-6.72l.07-.18a5,5,0,0,1,9.39,3.43l-.07.18A5,5,0,0,1,470.84,324.94Z"/>
    <path id="d-ph9" class="cls-1" d="M966.43,319.14a5,5,0,0,1-4.67-3.2l-.06-.14a5,5,0,0,1,9.3-3.69l.09.22a5,5,0,0,1-2.86,6.47A5,5,0,0,1,966.43,319.14Z"/>
    <path id="d-ph10" class="cls-1" d="M541.65,219.7A5,5,0,0,1,538.3,211l.11-.1a5,5,0,0,1,6.77,7.36l-.19.17A5,5,0,0,1,541.65,219.7Z"/>
    <path id="d-ph11" class="cls-1" d="M893.2,215.61a5,5,0,0,1-3.27-1.21l-.15-.13a5,5,0,0,1,6.53-7.57l.15.13a5,5,0,0,1-3.26,8.78Z"/>
    <path id="d-ph12" class="cls-1" d="M653.24,159.47a5,5,0,0,1-1.26-9.84l.26-.06a5,5,0,0,1,2.39,9.71l-.12,0A5,5,0,0,1,653.24,159.47Z"/>
    <path id="d-ph13" class="cls-1" d="M780.26,157.92a5.44,5.44,0,0,1-1.19-.14l-.13,0a5,5,0,1,1,2.24-9.74l.25.06a5,5,0,0,1-1.17,9.86Z"/>

    <path id="d-my1" class="cls-1" d="M648.13,650.31a4.76,4.76,0,0,1-1.48-.23l-.25-.07a5,5,0,1,1,2.87-9.58l.34.1a5,5,0,0,1-1.48,9.78Z"/>
    <path id="d-my2" class="cls-1" d="M799.22,647.71a5,5,0,0,1-1.61-9.73l.28-.1a5,5,0,0,1,3.25,9.46l-.31.1A4.73,4.73,0,0,1,799.22,647.71Z"/>
    <path id="d-my3" class="cls-1" d="M524.08,563.48a5,5,0,0,1-4-2l-.16-.22a5,5,0,1,1,8-6.06l.21.28a5,5,0,0,1-4,8Z"/>
    <path id="d-my4" class="cls-1" d="M920.22,556.76a5,5,0,0,1-4.07-7.9l.3-.43a5,5,0,1,1,8.2,5.72l-.35.5A5,5,0,0,1,920.22,556.76Z"/>
    <path id="d-my5" class="cls-1" d="M474.79,420.31a5,5,0,0,1-5-4.9v-.31a5,5,0,0,1,10-.19v.31a5,5,0,0,1-4.91,5.09Z"/>
    <path id="d-my6" class="cls-1" d="M964.71,411.8a5,5,0,0,1-5-4.91v-.31a5,5,0,0,1,10-.19v.31a5,5,0,0,1-4.91,5.1Z"/>
    <path id="d-my7" class="cls-1" d="M519,275.46a5,5,0,0,1-4.09-7.8l.05-.07.09-.12a5,5,0,0,1,8.26,5.63l-.16.23A5.11,5.11,0,0,1,519,275.46Z"/>
    <path id="d-my8" class="cls-1" d="M915.53,268.6a5,5,0,0,1-4-2l-.21-.28a5,5,0,1,1,8-6l.17.22a5,5,0,0,1-4,8Z"/>
    <path id="d-my9" class="cls-1" d="M639.86,184.37a5,5,0,0,1-1.62-9.73l.31-.11a5,5,0,1,1,3.21,9.47l-.27.09A4.9,4.9,0,0,1,639.86,184.37Z"/>
    <path id="d-my10" class="cls-1" d="M791.55,181.68a5.12,5.12,0,0,1-1.44-.21l-.34-.11a5,5,0,1,1,3-9.55l.25.08a5,5,0,0,1-1.43,9.79Z"/>

    <path id="d-laos1" class="cls-1" d="M796.46,627.45a5,5,0,0,1-1.73-9.69l.29-.11a5,5,0,0,1,3.41,9.41l-.24.08A5,5,0,0,1,796.46,627.45Z"/>
    <path id="d-laos2" class="cls-1" d="M642.85,627.42a5.08,5.08,0,0,1-1.7-.3l-.31-.11a5,5,0,1,1,3.5-9.37l.22.08a5,5,0,0,1-1.71,9.7Z"/>
    <path id="d-laos3" class="cls-1" d="M914.43,528.7a5,5,0,0,1-4.35-7.46l.28-.5a5,5,0,1,1,8.68,5l-.26.43A5,5,0,0,1,914.43,528.7Z"/>
    <path id="d-laos4" class="cls-1" d="M525,528.55a5,5,0,0,1-4.33-2.48l-.17-.31a5,5,0,0,1,8.7-4.92l.11.19a5,5,0,0,1-4.31,7.52Z"/>
    <path id="d-laos5" class="cls-1" d="M498.13,377a5.33,5.33,0,0,1-.88-.08,5,5,0,0,1-4.05-5.79l0-.24a5,5,0,0,1,9.86,1.66l-.05.32A5,5,0,0,1,498.13,377Z"/>
    <path id="d-laos6" class="cls-1" d="M941.3,377a5,5,0,0,1-4.91-4.12l0-.29a5,5,0,0,1,9.84-1.74l.05.27a5,5,0,0,1-4,5.8A5.35,5.35,0,0,1,941.3,377Z"/>
    <path id="d-laos7" class="cls-1" d="M575,243.68a5,5,0,0,1-3.22-8.83l.23-.19a5,5,0,0,1,6.42,7.67l-.22.18A4.93,4.93,0,0,1,575,243.68Z"/>
    <path id="d-laos8" class="cls-1" d="M864.45,243.66a5,5,0,0,1-3.19-1.14l-.25-.21a5,5,0,0,1,6.43-7.66l.19.16a5,5,0,0,1-3.18,8.85Z"/>

    <path id="d-ind1" class="cls-1" d="M656.58,611a4.85,4.85,0,0,1-1.54-.24l-.28-.09a5,5,0,0,1,3.07-9.52l.29.1a5,5,0,0,1-1.54,9.75Z"/>
    <path id="d-ind2" class="cls-1" d="M783,611a5,5,0,0,1-1.57-9.75l.31-.1a5,5,0,0,1,3.08,9.52l-.25.08A5,5,0,0,1,783,611Z"/>
    <path id="d-ind3" class="cls-1" d="M554,536.65a5,5,0,0,1-4-2l-.19-.27a5,5,0,1,1,8.11-5.84l.16.21a5,5,0,0,1-1.09,7A4.92,4.92,0,0,1,554,536.65Z"/>
    <path id="d-ind4" class="cls-1" d="M885.48,536.56a5,5,0,0,1-4-7.95l.28-.39a5,5,0,0,1,8.1,5.86l-.31.43A5,5,0,0,1,885.48,536.56Z"/>
    <path id="d-ind5" class="cls-1" d="M514.77,416.2a5,5,0,0,1-5-5V411a5,5,0,0,1,5-5.05h0a5,5,0,0,1,5,5v.35A5,5,0,0,1,514.77,416.2Z"/>
    <path id="d-ind6" class="cls-1" d="M924.73,415.93a5,5,0,0,1-5-4.95v-.35a5,5,0,0,1,10,0v.25a5,5,0,0,1-5,5.05Z"/>
    <path id="d-ind7" class="cls-1" d="M553.78,295.7a5,5,0,0,1-4-7.93l.2-.28a5,5,0,1,1,8.05,5.93l-.15.21A5,5,0,0,1,553.78,295.7Z"/>
    <path id="d-ind8" class="cls-1" d="M885.61,295.44a5,5,0,0,1-4.06-2.08l-.16-.21a5,5,0,1,1,8.08-5.9l.19.27a5,5,0,0,1-4,7.92Z"/>
    <path id="d-ind9" class="cls-1" d="M656.14,221.11a5,5,0,0,1-1.54-9.76l.26-.08a5,5,0,1,1,3.13,9.49l-.31.1A4.87,4.87,0,0,1,656.14,221.11Z"/>
    <path id="d-ind10" class="cls-1" d="M783.11,221a5.15,5.15,0,0,1-1.54-.24l-.28-.09a5,5,0,0,1,3.07-9.52l.28.09a5,5,0,0,1-1.53,9.76Z"/>
    <path id="d-tl1" class="cls-1" d="M723.48,601.13a5,5,0,0,1-.15-10h.45a5,5,0,0,1,.09,10h-.39Z"/>
    <path id="d-tl2" class="cls-1" d="M578.07,535.13a5,5,0,0,1-3.84-1.81l-.17-.19a5,5,0,1,1,7.64-6.45l.22.25a5,5,0,0,1-3.85,8.2Z"/>
    <path id="d-tl3" class="cls-1" d="M866.65,529.39a5,5,0,0,1-4-8L863,521a5,5,0,1,1,7.94,6.07l-.26.35A5,5,0,0,1,866.65,529.39Z"/>
    <path id="d-tl4" class="cls-1" d="M538.5,379.77a4.92,4.92,0,0,1-1-.1,5,5,0,0,1-3.9-5.9l.06-.29a5,5,0,1,1,9.79,2l-.05.27A5,5,0,0,1,538.5,379.77Z"/>
    <path id="d-tl5" class="cls-1" d="M899.2,372a5,5,0,0,1-4.84-3.75l-.08-.33a5,5,0,0,1,9.71-2.41l.06.24a5,5,0,0,1-3.6,6.09A4.93,4.93,0,0,1,899.2,372Z"/>
    <path id="d-tl6" class="cls-1" d="M635.47,251.57a5,5,0,0,1-2.26-9.46l.24-.13a5,5,0,0,1,4.55,8.91l-.28.14A4.9,4.9,0,0,1,635.47,251.57Z"/><path id="d-tl7" class="cls-1" d="M797,248.12a5.18,5.18,0,0,1-2.12-.47l-.2-.1a5,5,0,1,1,4.11-9.12l.32.15a5,5,0,0,1-2.11,9.54Z"/><path id="d-cam1" class="cls-1" d="M664.83,571.58a5.08,5.08,0,0,1-1.66-.28l-.14-.06a5,5,0,1,1,1.8.34Z"/><path id="d-cam2" class="cls-1" d="M777.64,570.48a5,5,0,0,1-2-9.59l.39-.15a5,5,0,0,1,3.42,9.4A5,5,0,0,1,777.64,570.48Z"/><path id="d-cam3" class="cls-1" d="M577.72,499.92a5.06,5.06,0,0,1-4.34-2.45,1.51,1.51,0,0,0-.1-.17,5,5,0,1,1,7,1.92A4.87,4.87,0,0,1,577.72,499.92Z"/><path id="d-cam4" class="cls-1" d="M863.39,497.18a5,5,0,0,1-2.37-.6,5,5,0,0,1-2-6.79l.08-.15.05-.08a.59.59,0,0,1,0-.08,5,5,0,0,1,8.72,4.9h0l-.1.19A5,5,0,0,1,863.39,497.18Z"/><path id="d-cam5" class="cls-1" d="M556.94,388.92a6.07,6.07,0,0,1-.84-.07,5,5,0,0,1-4.09-5.73.44.44,0,0,1,0-.1,5,5,0,1,1,4.91,5.9Z"/><path id="d-cam6" class="cls-1" d="M881.93,385.65a5,5,0,0,1-4.86-3.85,2.53,2.53,0,0,1-.07-.38,5,5,0,1,1,4.93,4.23Z"/><path id="d-cam7" class="cls-1" d="M612.4,290.6a5,5,0,0,1-3.27-8.77l.07-.05a5,5,0,0,1,6.46,7.63A5,5,0,0,1,612.4,290.6Z"/><path id="d-cam8" class="cls-1" d="M824.54,288.49a4.94,4.94,0,0,1-3.17-1.14,5,5,0,0,1,6.22-7.83l.21.17a5,5,0,0,1-3.26,8.8Z"/>
    <path id="d-bur1" class="cls-1" d="M723.3,560.91a5,5,0,1,1,.35,0Z"/><path id="d-bur2" class="cls-1" d="M637.29,535.94a5,5,0,1,1,2.53-9.31,3,3,0,0,1,.38.24,5,5,0,0,1-2.91,9.07Z"/><path id="d-bur3" class="cls-1" d="M807.6,530.54a5,5,0,1,1,3.12-1.1l-.08.06A5,5,0,0,1,807.6,530.54Z"/><path id="d-bur4" class="cls-1" d="M582.34,465.14a5,5,0,0,1-4.66-3.23l0-.14a5,5,0,1,1,4.71,3.37Z"/><path id="d-bur5" class="cls-1" d="M858,456.46a5.15,5.15,0,0,1-1.22-.15,5,5,0,0,1-3.64-6.06l.07-.25,0-.08,0-.11a5,5,0,0,1,9.6,2.78.84.84,0,0,1-.05.17v0A5,5,0,0,1,858,456.46Z"/><path id="d-bur6" class="cls-1" d="M579.51,375.62a5,5,0,1,1,4.86-3.84l-.07.25A5,5,0,0,1,579.51,375.62Z"/><path id="d-bur7" class="cls-1" d="M855.12,366.74A5,5,0,0,1,853.4,357a5,5,0,0,1,6.38,2.92.78.78,0,0,1,.05.14,5,5,0,0,1-3.05,6.38A5.09,5.09,0,0,1,855.12,366.74Z"/><path id="d-bur8" class="cls-1" d="M629.81,301.46a5,5,0,0,1-3.11-8.91l.08-.06a5,5,0,1,1,3,9Z"/><path id="d-bur9" class="cls-1" d="M800.16,296a4.89,4.89,0,0,1-2.56-.72l-.38-.24a5,5,0,1,1,2.94,1Z"/><path id="d-br1" class="cls-1" d="M719.52,541h0a5,5,0,1,1,5-5A5,5,0,0,1,719.47,541Z"/><path id="d-br2" class="cls-1" d="M799.85,511.9a5,5,0,1,1,3.84-8.23,5,5,0,0,1-.58,7l-.06.06A5,5,0,0,1,799.85,511.9Z"/><path id="d-br3" class="cls-1" d="M639.27,511.55h0a5,5,0,1,1,5-5A5,5,0,0,1,639.22,511.55Z"/><path id="d-br4" class="cls-1" d="M842.76,438a4.53,4.53,0,0,1-.89-.08,5,5,0,0,1-4-5.77s0-.09,0-.1v0s0-.06,0-.09a.44.44,0,0,0,0-.1,5,5,0,1,1,9.83,1.84h0v0l0,.16h0A5,5,0,0,1,842.76,438Z"/><path id="d-br5" class="cls-1" d="M596.6,437.47a5,5,0,0,1-4.9-4.06.36.36,0,0,0,0-.1,5,5,0,1,1,5.83,4.07A4.76,4.76,0,0,1,596.6,437.47Z"/><path id="d-br6" class="cls-1" d="M832.37,346.09a5,5,0,0,1-4.28,7.53,5,5,0,0,1-4.33-2.44l-.08-.14a5,5,0,0,1,8.69-5"/><path id="d-br7" class="cls-1" d="M611.58,353.36a5,5,0,0,1-4.34-7.52l.08-.13a5,5,0,1,1,4.26,7.65Z"/><path id="d-br8" class="cls-1" d="M762.66,298.57a5.17,5.17,0,0,1-1.59-.25l-.22-.08a5,5,0,1,1,1.81.33Z"/><path id="d-br9" class="cls-1" d="M677.14,298.47a5,5,0,0,1-1.86-9.64l.41-.15a5,5,0,0,1,3.19,9.48A5.07,5.07,0,0,1,677.14,298.47Z"/></g>

    <g id="new_numbers" data-name="new numbers">
      <g id="_1920" data-name="1920">
        <path class="cls-2" d="M762.51,42.26l.07-.57,2.28.27.8-6.6h0L763.28,37l-.33-.47,2.42-1.67,1,.12L765.51,42l2.14.26-.07.57Z"/>
        <path class="cls-2" d="M774.6,38.78a5.2,5.2,0,0,1-.48,1.61,5.95,5.95,0,0,1-1.91,2.27,6,6,0,0,1-1.16.68l-.85-.12c.46-.23.88-.47,1.26-.71a6.26,6.26,0,0,0,1-.8,5.07,5.07,0,0,0,.77-1,5.79,5.79,0,0,0,.57-1.17l-.06,0a2.08,2.08,0,0,1-2.08.85,2.64,2.64,0,0,1-.91-.3,2.12,2.12,0,0,1-.66-.56,2,2,0,0,1-.37-.8,2.7,2.7,0,0,1,0-1,2.81,2.81,0,0,1,.32-1,2.14,2.14,0,0,1,1.45-1.1,2.81,2.81,0,0,1,1,0,3,3,0,0,1,1,.35,2.14,2.14,0,0,1,.69.68,2.4,2.4,0,0,1,.35,1A3.82,3.82,0,0,1,774.6,38.78Zm-2.68,1.11a1.88,1.88,0,0,0,1.4-.29,1.75,1.75,0,0,0,.65-1.21l0-.19a1.77,1.77,0,0,0-.3-1.34,1.81,1.81,0,0,0-1.26-.66,1.83,1.83,0,0,0-1.4.29,1.7,1.7,0,0,0-.66,1.21l0,.18a1.72,1.72,0,0,0,.31,1.34A1.78,1.78,0,0,0,771.92,39.89Z"/>
        <path class="cls-2" d="M780.53,44.77,775.58,44l.1-.67,3.1-2.13a5.09,5.09,0,0,0,1.06-.92,2.18,2.18,0,0,0,.52-1.08l0-.21a1.62,1.62,0,0,0-.22-1.19,1.59,1.59,0,0,0-1.12-.61,1.71,1.71,0,0,0-1.24.19,2.27,2.27,0,0,0-.78.91l-.54-.3a3.06,3.06,0,0,1,.4-.61,2,2,0,0,1,.56-.49,2.23,2.23,0,0,1,.75-.27,2.77,2.77,0,0,1,.95,0,2.6,2.6,0,0,1,.94.31,2,2,0,0,1,.64.55,2,2,0,0,1,.33.75,2.76,2.76,0,0,1,0,.91,2.71,2.71,0,0,1-.65,1.4,6,6,0,0,1-1.32,1.13l-2.75,1.86,4.27.67Z"/>
        <path class="cls-2" d="M784.54,45.59a2.18,2.18,0,0,1-1.78-1.32,5.56,5.56,0,0,1-.12-3.06,5.58,5.58,0,0,1,1.15-2.83,2.46,2.46,0,0,1,3.9.69,5.54,5.54,0,0,1,.12,3A5.54,5.54,0,0,1,786.66,45,2.18,2.18,0,0,1,784.54,45.59Zm.1-.56a1.57,1.57,0,0,0,1.56-.5,4.08,4.08,0,0,0,.83-2l.18-1a4.15,4.15,0,0,0-.09-2.18,1.58,1.58,0,0,0-1.3-1,1.56,1.56,0,0,0-1.57.5,4.12,4.12,0,0,0-.83,2l-.18,1a4,4,0,0,0,.09,2.18A1.6,1.6,0,0,0,784.64,45Zm.5-2.86a.59.59,0,0,1-.38-.19.41.41,0,0,1-.07-.32l0-.18a.41.41,0,0,1,.17-.27.52.52,0,0,1,.42-.05.56.56,0,0,1,.39.19.49.49,0,0,1,.07.32l0,.17a.4.4,0,0,1-.17.28A.59.59,0,0,1,785.14,42.17Z"/>
      </g>

      <g id="_1925" data-name="1925">
        <path class="cls-2" d="M868.26,70.57l.23-.53,2.1.94,2.71-6.07-.06,0-2.7.86-.17-.53,2.8-.89.92.41-2.91,6.51,2,.88-.24.52Z"/>
        <path class="cls-2" d="M880.82,70.8a5.18,5.18,0,0,1-.93,1.4,6.08,6.08,0,0,1-1.18,1,6.58,6.58,0,0,1-1.32.62,7.19,7.19,0,0,1-1.3.31l-.78-.37a12.35,12.35,0,0,0,1.41-.31,6.37,6.37,0,0,0,1.2-.47,5.76,5.76,0,0,0,1-.68,6.36,6.36,0,0,0,.89-1l-.05,0a2.25,2.25,0,0,1-1,.42,2.11,2.11,0,0,1-1.19-.23,2.42,2.42,0,0,1-.79-.55,2.28,2.28,0,0,1-.47-.73,2,2,0,0,1-.11-.88,2.71,2.71,0,0,1,.26-1,2.82,2.82,0,0,1,.6-.85,2.17,2.17,0,0,1,.78-.5,2.38,2.38,0,0,1,.93-.12,2.77,2.77,0,0,1,1,.27,2.8,2.8,0,0,1,.9.64,2.12,2.12,0,0,1,.46.86,2.42,2.42,0,0,1,.06,1A4.18,4.18,0,0,1,880.82,70.8Zm-2.88.27a1.81,1.81,0,0,0,1.42.14,1.79,1.79,0,0,0,1-1l.08-.17a1.77,1.77,0,0,0,.11-1.36,2.1,2.1,0,0,0-2.44-1.14,1.71,1.71,0,0,0-1,1l-.08.16a1.73,1.73,0,0,0-.11,1.38A1.85,1.85,0,0,0,877.94,71.07Z"/>
        <path class="cls-2" d="M884.72,78.28l-4.5-2.21.29-.6,3.59-1.12a5.9,5.9,0,0,0,1.29-.57,2.1,2.1,0,0,0,.81-.89l.1-.18a1.45,1.45,0,0,0-.75-2.12,1.72,1.72,0,0,0-1.24-.18,2.1,2.1,0,0,0-1,.64l-.44-.45a3.75,3.75,0,0,1,.57-.47,2,2,0,0,1,.68-.29,2.1,2.1,0,0,1,.8,0,2.89,2.89,0,0,1,.9.28,3,3,0,0,1,.81.58,2.18,2.18,0,0,1,.45.71,1.87,1.87,0,0,1,.09.82,2.77,2.77,0,0,1-.26.87,2.8,2.8,0,0,1-1,1.15,6.37,6.37,0,0,1-1.6.69l-3.17,1,3.87,1.9Z"/>
        <path class="cls-2" d="M893.51,74.76l-3.1-1.59-1.69,2.75.06,0a2.14,2.14,0,0,1,.89-.23,2.27,2.27,0,0,1,1,.28,2.8,2.8,0,0,1,.76.57,2,2,0,0,1,.43.75,1.94,1.94,0,0,1,.07.87,2.56,2.56,0,0,1-.3,1A2.87,2.87,0,0,1,891,80a2.25,2.25,0,0,1-.8.47,2.38,2.38,0,0,1-.93.09,2.89,2.89,0,0,1-1-.32,3.51,3.51,0,0,1-.68-.46,2.34,2.34,0,0,1-.47-.54,2.93,2.93,0,0,1-.29-.59,3.53,3.53,0,0,1-.13-.63l.62-.11a2.45,2.45,0,0,0,.32,1,2.05,2.05,0,0,0,.91.78,1.64,1.64,0,0,0,2.4-.75l.08-.15a1.74,1.74,0,0,0,.18-1.35,1.77,1.77,0,0,0-1-1,2.74,2.74,0,0,0-.5-.2,1.71,1.71,0,0,0-.43-.06,1.75,1.75,0,0,0-.4,0,2.07,2.07,0,0,0-.4.13L888,76l2.15-3.6,3.59,1.84Z"/>
      </g>

      <g id="_1930" data-name="1930"><path class="cls-2" d="M960.09,128.4l.38-.43,1.72,1.51,4.38-5,0,0-2.84,0v-.56l2.94,0,.76.66-4.71,5.36,1.62,1.42-.38.43Z"/><path class="cls-2" d="M972,132.33a5.14,5.14,0,0,1-1.3,1.06,5.88,5.88,0,0,1-1.43.6,7.16,7.16,0,0,1-1.43.21,6.4,6.4,0,0,1-1.34-.1l-.64-.58a12.69,12.69,0,0,0,1.44.12,6.6,6.6,0,0,0,1.28-.09,5.37,5.37,0,0,0,1.18-.36,5.89,5.89,0,0,0,1.12-.65l0,0a2.26,2.26,0,0,1-1.12.09,2.05,2.05,0,0,1-1.07-.57,2.41,2.41,0,0,1-.59-.75,2.2,2.2,0,0,1-.23-.85,1.89,1.89,0,0,1,.15-.86,2.74,2.74,0,0,1,.53-.84,2.82,2.82,0,0,1,.82-.63,2.25,2.25,0,0,1,.9-.25,2.32,2.32,0,0,1,.92.16,2.91,2.91,0,0,1,.89.55,2.82,2.82,0,0,1,.66.89,2.14,2.14,0,0,1,.2.95,2.58,2.58,0,0,1-.25,1A4.12,4.12,0,0,1,972,132.33Zm-2.84-.59a1.83,1.83,0,0,0,1.32.55,1.76,1.76,0,0,0,1.22-.63l.13-.14a1.75,1.75,0,0,0,.51-1.28,1.8,1.8,0,0,0-.67-1.25,1.83,1.83,0,0,0-1.32-.55,1.71,1.71,0,0,0-1.23.62l-.12.14a1.71,1.71,0,0,0-.51,1.28A1.84,1.84,0,0,0,969.18,131.74Z"/><path class="cls-2" d="M974.44,135.53a1.92,1.92,0,0,0,1.19.59,1.3,1.3,0,0,0,1-.44l.1-.1a1.24,1.24,0,0,0,.38-1,1.67,1.67,0,0,0-.58-1,1.92,1.92,0,0,0-1-.55,2.1,2.1,0,0,0-1,.1l-.12-.6a3.38,3.38,0,0,1,.57-.11,3.26,3.26,0,0,1,.62,0,2.25,2.25,0,0,1,.65.24,2.75,2.75,0,0,1,.66.48,3.07,3.07,0,0,1,.56.71,2.13,2.13,0,0,1,.26.77,1.8,1.8,0,0,1-.08.76,1.83,1.83,0,0,1-.43.71,2,2,0,0,1-.56.43,1.68,1.68,0,0,1-.6.16,1.54,1.54,0,0,1-.6-.06,2.63,2.63,0,0,1-.6-.25l0,0a2.57,2.57,0,0,1,.34.6,1.82,1.82,0,0,1,.12.65,1.79,1.79,0,0,1-.14.67,2.2,2.2,0,0,1-.43.66,2.31,2.31,0,0,1-.76.54,1.92,1.92,0,0,1-.85.16,2.2,2.2,0,0,1-.88-.22,3.12,3.12,0,0,1-.87-.59,4,4,0,0,1-.55-.65,2.7,2.7,0,0,1-.3-.65,2.17,2.17,0,0,1-.11-.66,2.72,2.72,0,0,1,0-.64l.62.07a2.49,2.49,0,0,0,0,1.09,2.13,2.13,0,0,0,.67,1,1.9,1.9,0,0,0,1.26.6,1.43,1.43,0,0,0,1.14-.5l.12-.13a1.45,1.45,0,0,0,.45-1.15,2,2,0,0,0-.71-1.24l-.71-.67.39-.41Z"/><path class="cls-2" d="M976.4,143.59a2.19,2.19,0,0,1-.72-2.1,7.22,7.22,0,0,1,4.17-4.28,2.22,2.22,0,0,1,2.12.67,2.19,2.19,0,0,1,.72,2.1,7.29,7.29,0,0,1-4.17,4.28A2.22,2.22,0,0,1,976.4,143.59Zm.4-.41a1.58,1.58,0,0,0,1.57.47,4.1,4.1,0,0,0,1.83-1.2l.72-.74a4.19,4.19,0,0,0,1.16-1.85,1.61,1.61,0,0,0-.51-1.57,1.59,1.59,0,0,0-1.58-.47,4.2,4.2,0,0,0-1.82,1.2l-.72.74a4,4,0,0,0-1.16,1.86A1.6,1.6,0,0,0,976.8,143.18Zm2-2.08a.57.57,0,0,1-.21-.37.42.42,0,0,1,.13-.31l.12-.12a.38.38,0,0,1,.3-.13.55.55,0,0,1,.38.19.59.59,0,0,1,.2.38.44.44,0,0,1-.12.3l-.13.12a.42.42,0,0,1-.29.14A.59.59,0,0,1,978.83,141.1Z"/></g><g id="_1935" data-name="1935"><path class="cls-2" d="M1033.53,213.74l.49-.3,1.21,1.95,5.65-3.49,0-.05-2.72-.81.16-.54,2.82.84.53.85-6.07,3.76,1.13,1.83-.49.3Z"/><path class="cls-2" d="M1043.8,221a5.17,5.17,0,0,1-1.56.63,5.76,5.76,0,0,1-1.53.15,6,6,0,0,1-1.43-.22,5.89,5.89,0,0,1-1.26-.48l-.44-.74a11.86,11.86,0,0,0,1.35.54,6.4,6.4,0,0,0,1.25.28,5.53,5.53,0,0,0,1.22,0,6.29,6.29,0,0,0,1.27-.3l0,0a2.23,2.23,0,0,1-1.09-.23,2.17,2.17,0,0,1-.87-.86,2.77,2.77,0,0,1-.34-.9,2.12,2.12,0,0,1,0-.87,2,2,0,0,1,.4-.79,2.81,2.81,0,0,1,.75-.64,3.06,3.06,0,0,1,1-.37,2.42,2.42,0,0,1,.93,0,2.37,2.37,0,0,1,.84.42,2.92,2.92,0,0,1,.68.79,2.7,2.7,0,0,1,.38,1,2.25,2.25,0,0,1-.09,1,2.45,2.45,0,0,1-.53.86A3.94,3.94,0,0,1,1043.8,221Zm-2.54-1.39a1.82,1.82,0,0,0,1.1.9,1.71,1.71,0,0,0,1.35-.24l.16-.1a1.74,1.74,0,0,0,.87-1.07,1.78,1.78,0,0,0-.28-1.39,1.83,1.83,0,0,0-1.1-.92,1.76,1.76,0,0,0-1.35.24l-.16.1a1.72,1.72,0,0,0-.86,1.07A1.86,1.86,0,0,0,1041.26,219.63Z"/><path class="cls-2" d="M1045.17,224.78a1.91,1.91,0,0,0,1,.91,1.29,1.29,0,0,0,1.11-.12l.13-.07a1.27,1.27,0,0,0,.67-.88,1.74,1.74,0,0,0-.25-1.16,1.87,1.87,0,0,0-.79-.81,2,2,0,0,0-1-.2l.06-.61a2.93,2.93,0,0,1,.58.06,2.56,2.56,0,0,1,.58.22,1.88,1.88,0,0,1,.55.41,2.83,2.83,0,0,1,.49.65,2.88,2.88,0,0,1,.33.85,2,2,0,0,1,0,.81,1.66,1.66,0,0,1-.29.7,1.85,1.85,0,0,1-.62.55,2.16,2.16,0,0,1-.66.25,1.6,1.6,0,0,1-.62,0,1.47,1.47,0,0,1-.56-.24,2.43,2.43,0,0,1-.5-.41l0,0a2.6,2.6,0,0,1,.15.67,1.82,1.82,0,0,1-.08.66,1.62,1.62,0,0,1-.33.6,2,2,0,0,1-.6.5,2.49,2.49,0,0,1-.88.3,1.91,1.91,0,0,1-.86-.1,2.12,2.12,0,0,1-.78-.47,3,3,0,0,1-.66-.82,3.57,3.57,0,0,1-.33-.77,2.31,2.31,0,0,1-.1-.72,2.39,2.39,0,0,1,.08-.66,3.92,3.92,0,0,1,.23-.6l.57.25a2.44,2.44,0,0,0-.29,1.05,2.24,2.24,0,0,0,.34,1.17,2,2,0,0,0,1,.95,1.48,1.48,0,0,0,1.25-.15l.15-.09a1.45,1.45,0,0,0,.76-1,2,2,0,0,0-.32-1.39l-.48-.85.5-.28Z"/><path class="cls-2" d="M1052.08,231.43l-1.67-3.06-3,1.33,0,.07a2,2,0,0,1,.87.31,2.14,2.14,0,0,1,.66.79,2.43,2.43,0,0,1,.31.89,2,2,0,0,1-.49,1.62,2.62,2.62,0,0,1-.79.62,2.8,2.8,0,0,1-1,.34,2.15,2.15,0,0,1-1.75-.51,2.84,2.84,0,0,1-.65-.82,3.45,3.45,0,0,1-.31-.77,2.56,2.56,0,0,1-.09-.71,2.84,2.84,0,0,1,.1-.65,4,4,0,0,1,.25-.6l.57.27a2.42,2.42,0,0,0-.32,1,2.08,2.08,0,0,0,.31,1.15,1.65,1.65,0,0,0,2.41.74l.16-.09a1.77,1.77,0,0,0,.9-1,1.72,1.72,0,0,0-.22-1.38,2.34,2.34,0,0,0-.3-.45,1.79,1.79,0,0,0-.32-.3,2.47,2.47,0,0,0-.36-.19,2.09,2.09,0,0,0-.4-.12l-.2-.54,3.81-1.77,1.93,3.54Z"/></g><g id="_1940" data-name="1940"><path class="cls-2" d="M1076.82,312.75l.56-.15.58,2.23,6.43-1.68v0l-2.36-1.58.31-.47,2.44,1.64.25,1-6.9,1.8.54,2.08-.55.14Z"/><path class="cls-2" d="M1084.48,322.72a5.07,5.07,0,0,1-1.67.14,5.71,5.71,0,0,1-1.51-.31,6.34,6.34,0,0,1-1.31-.63,6.86,6.86,0,0,1-1-.83l-.2-.84a12.12,12.12,0,0,0,1.12.91,6.69,6.69,0,0,0,1.12.64,5.23,5.23,0,0,0,1.16.37,6.08,6.08,0,0,0,1.3.09v-.05a2.28,2.28,0,0,1-1-.55,2.09,2.09,0,0,1-.58-1.08,2.64,2.64,0,0,1-.06-1,2.12,2.12,0,0,1,.29-.82,2,2,0,0,1,.6-.63,2.56,2.56,0,0,1,.92-.39,2.82,2.82,0,0,1,1-.07,2.19,2.19,0,0,1,.88.3,2.33,2.33,0,0,1,.68.65,2.89,2.89,0,0,1,.42,1,2.78,2.78,0,0,1,0,1.1,2.12,2.12,0,0,1-.37.9,2.62,2.62,0,0,1-.76.67A3.94,3.94,0,0,1,1084.48,322.72Zm-2-2.09a1.88,1.88,0,0,0,.78,1.2,1.76,1.76,0,0,0,1.37.16l.18,0a1.76,1.76,0,0,0,1.14-.77,1.87,1.87,0,0,0,.15-1.42,1.81,1.81,0,0,0-.78-1.19,1.7,1.7,0,0,0-1.36-.17l-.19,0a1.68,1.68,0,0,0-1.13.77A1.83,1.83,0,0,0,1082.47,320.63Z"/><path class="cls-2" d="M1080.74,328.91l1.57-.34-.84-3.8.57-.13,6.16,2.31.2.91-5.42,1.2.26,1.18-.53.11-.26-1.17-1.57.35Zm1.39-3.67.71,3.21,4.87-1.08v0Z"/><path class="cls-2" d="M1081.78,334.49a2.22,2.22,0,0,1,.58-2.15,7.27,7.27,0,0,1,5.86-1.18A2.46,2.46,0,0,1,1089,335a5.46,5.46,0,0,1-2.79,1.23,5.61,5.61,0,0,1-3.06,0A2.18,2.18,0,0,1,1081.78,334.49Zm.56-.12a1.59,1.59,0,0,0,1,1.28,4.17,4.17,0,0,0,2.19,0l1-.21a4.14,4.14,0,0,0,2-.87,1.77,1.77,0,0,0-.58-2.86,4.14,4.14,0,0,0-2.18,0l-1,.2a4.23,4.23,0,0,0-2,.88A1.6,1.6,0,0,0,1082.34,334.37Zm2.85-.57a.54.54,0,0,1,0-.43.44.44,0,0,1,.27-.18l.17,0a.37.37,0,0,1,.32.06.49.49,0,0,1,.2.37.54.54,0,0,1,0,.43.44.44,0,0,1-.27.18l-.17,0a.39.39,0,0,1-.32-.06A.51.51,0,0,1,1085.19,333.8Z"/></g><g id="_1945" data-name="1945"><path class="cls-2" d="M1089.64,424.26l.58,0-.11,2.3,6.64.3v-.05l-1.79-2.21.44-.35,1.85,2.28,0,1-7.13-.32-.09,2.15-.58,0Z"/><path class="cls-2" d="M1094,436.06a5.32,5.32,0,0,1-1.64-.36A5.91,5.91,0,0,1,1091,435a6.68,6.68,0,0,1-1.06-1,6.44,6.44,0,0,1-.76-1.11l0-.86a12.48,12.48,0,0,0,.81,1.2,6.69,6.69,0,0,0,.88.95,5.74,5.74,0,0,0,1,.69,6.46,6.46,0,0,0,1.22.48v-.06a2.21,2.21,0,0,1-.77-.81,2.18,2.18,0,0,1-.23-1.2,2.45,2.45,0,0,1,.23-.93,2.3,2.3,0,0,1,.51-.71,2.06,2.06,0,0,1,.77-.42,3,3,0,0,1,2,.14,2.09,2.09,0,0,1,.75.55,2.13,2.13,0,0,1,.46.82,2.86,2.86,0,0,1,.12,1,3,3,0,0,1-.27,1.08,2.16,2.16,0,0,1-.63.74,2.59,2.59,0,0,1-.92.42A4.34,4.34,0,0,1,1094,436.06Zm-1.31-2.59a1.79,1.79,0,0,0,.4,1.37,1.69,1.69,0,0,0,1.25.56h.19a1.71,1.71,0,0,0,1.31-.39,1.8,1.8,0,0,0,.56-1.31,1.84,1.84,0,0,0-.39-1.38,1.73,1.73,0,0,0-1.25-.56l-.19,0a1.73,1.73,0,0,0-1.31.41A1.84,1.84,0,0,0,1092.71,433.47Z"/><path class="cls-2" d="M1088.61,440.88l1.61.13.31-3.87.59.05,5.2,4-.08.92-5.53-.45-.1,1.2-.54,0,.1-1.2-1.61-.13Zm2.42-3.1-.27,3.28,5,.4v0Z"/><path class="cls-2" d="M1095,449.27l.3-3.48-3.19-.52,0,.07a2,2,0,0,1,.55.73,2.34,2.34,0,0,1,.12,1,2.71,2.71,0,0,1-.24.92,2,2,0,0,1-.53.68,2,2,0,0,1-.78.39,2.5,2.5,0,0,1-1,.08,2.83,2.83,0,0,1-1-.25,2,2,0,0,1-.74-.57,2.14,2.14,0,0,1-.44-.83,2.71,2.71,0,0,1-.08-1,3.22,3.22,0,0,1,.16-.82,2.52,2.52,0,0,1,.77-1.12,3.34,3.34,0,0,1,.53-.37l.33.54a2.51,2.51,0,0,0-.84.69,2.11,2.11,0,0,0-.38,1.14,1.73,1.73,0,0,0,.37,1.36,1.75,1.75,0,0,0,1.23.58h.18a1.61,1.61,0,0,0,1.9-1.62,2.43,2.43,0,0,0,0-.54,1.61,1.61,0,0,0-.11-.42,2,2,0,0,0-.19-.36,2.69,2.69,0,0,0-.27-.32l.14-.56,4.14.63-.34,4Z"/></g><g id="_1950" data-name="1950"><path class="cls-2" d="M1068.19,535.19l.54.19-.77,2.17,6.26,2.23,0,0-1.07-2.63.52-.21,1.1,2.72-.33.95-6.72-2.4-.72,2-.55-.2Z"/><path class="cls-2" d="M1068.92,547.74a5.47,5.47,0,0,1-1.47-.81,5.88,5.88,0,0,1-1.07-1.11,6.43,6.43,0,0,1-.73-1.26,6.71,6.71,0,0,1-.4-1.28l.3-.81a12.83,12.83,0,0,0,.42,1.39,6.14,6.14,0,0,0,.56,1.15,5.44,5.44,0,0,0,.76,1,6.06,6.06,0,0,0,1,.81l0,0a2.34,2.34,0,0,1-.5-1,2.18,2.18,0,0,1,.13-1.21,2.75,2.75,0,0,1,.49-.82,2.17,2.17,0,0,1,.7-.52,1.9,1.9,0,0,1,.86-.19,2.65,2.65,0,0,1,1,.19,2.86,2.86,0,0,1,.9.53,2.2,2.2,0,0,1,.55.75,2.25,2.25,0,0,1,.2.91,2.92,2.92,0,0,1-.19,1,2.73,2.73,0,0,1-.58.94,2.11,2.11,0,0,1-.81.53,2.38,2.38,0,0,1-1,.13A3.75,3.75,0,0,1,1068.92,547.74Zm-.49-2.85a1.78,1.78,0,0,0,0,1.43,1.75,1.75,0,0,0,1,.9l.18.07a1.76,1.76,0,0,0,1.37,0,1.84,1.84,0,0,0,.93-1.08,1.82,1.82,0,0,0,0-1.43,1.71,1.71,0,0,0-1-.91l-.18-.07a1.71,1.71,0,0,0-1.37,0A1.82,1.82,0,0,0,1068.43,544.89Z"/><path class="cls-2" d="M1068.54,554.46l1.29-3.24-2.9-1.42,0,.06a2,2,0,0,1,.32.86,2.25,2.25,0,0,1-.19,1,2.74,2.74,0,0,1-.49.81,2.1,2.1,0,0,1-.7.5,2,2,0,0,1-.86.15,2.58,2.58,0,0,1-1-.21,2.9,2.9,0,0,1-.89-.54,2.34,2.34,0,0,1-.55-.75,2.16,2.16,0,0,1-.17-.92,2.85,2.85,0,0,1,.22-1,3.35,3.35,0,0,1,.39-.73,2.45,2.45,0,0,1,.49-.52,2.35,2.35,0,0,1,.57-.33,2.72,2.72,0,0,1,.61-.2l.16.61a2.5,2.5,0,0,0-1,.42,2.11,2.11,0,0,0-.69,1,1.72,1.72,0,0,0,0,1.42,1.76,1.76,0,0,0,1,.91l.17.06a1.75,1.75,0,0,0,1.36,0,1.71,1.71,0,0,0,.92-1,2.53,2.53,0,0,0,.16-.52,1.66,1.66,0,0,0,0-.44,2.7,2.7,0,0,0-.08-.39,3.2,3.2,0,0,0-.16-.39l.29-.5,3.79,1.81-1.49,3.74Z"/><path class="cls-2" d="M1060.06,556a2.21,2.21,0,0,1,1.69-1.44,5.57,5.57,0,0,1,3,.56,5.63,5.63,0,0,1,2.51,1.75,2.48,2.48,0,0,1-1.54,3.66,5.66,5.66,0,0,1-3-.56,5.54,5.54,0,0,1-2.5-1.76A2.19,2.19,0,0,1,1060.06,556Zm.53.22a1.6,1.6,0,0,0,.13,1.64,4.13,4.13,0,0,0,1.79,1.25l1,.41a4.12,4.12,0,0,0,2.15.39,1.78,1.78,0,0,0,1.12-2.69,4.09,4.09,0,0,0-1.78-1.25l-1-.4a4.16,4.16,0,0,0-2.15-.4A1.6,1.6,0,0,0,1060.59,556.17Zm2.68,1.13a.52.52,0,0,1,.27-.33.4.4,0,0,1,.32,0l.17.07a.4.4,0,0,1,.23.23.54.54,0,0,1,0,.42.52.52,0,0,1-.27.33.4.4,0,0,1-.32,0l-.17-.07a.43.43,0,0,1-.23-.23A.54.54,0,0,1,1063.27,557.3Z"/></g><g id="_1955" data-name="1955"><path class="cls-2" d="M1015.4,632.34l.46.34-1.38,1.84,5.32,4,0,0-.24-2.83.56,0,.25,2.93-.61.81-5.7-4.28-1.29,1.72-.46-.34Z"/><path class="cls-2" d="M1012.36,644.56a5.28,5.28,0,0,1-1.15-1.22,5.38,5.38,0,0,1-.7-1.37,6.17,6.17,0,0,1-.32-1.42,6.69,6.69,0,0,1,0-1.34l.53-.68a14.14,14.14,0,0,0,0,1.45,6.48,6.48,0,0,0,.19,1.27,5.11,5.11,0,0,0,.45,1.14,5.71,5.71,0,0,0,.73,1.08l0,0a2.4,2.4,0,0,1-.18-1.11,2.21,2.21,0,0,1,.49-1.12,2.66,2.66,0,0,1,.71-.64,2.07,2.07,0,0,1,.82-.29,2,2,0,0,1,.87.08,2.8,2.8,0,0,1,.88.47,2.73,2.73,0,0,1,.69.76,2.17,2.17,0,0,1,.31.88,2.33,2.33,0,0,1-.08.94,2.75,2.75,0,0,1-.49.92,2.68,2.68,0,0,1-.83.73,2.26,2.26,0,0,1-.93.27,2.59,2.59,0,0,1-1-.18A3.86,3.86,0,0,1,1012.36,644.56Zm.38-2.87a1.81,1.81,0,0,0-.45,1.35,1.77,1.77,0,0,0,.72,1.17l.15.12a1.73,1.73,0,0,0,1.31.41,2.12,2.12,0,0,0,1.65-2.12,1.72,1.72,0,0,0-.71-1.18l-.15-.11a1.74,1.74,0,0,0-1.32-.41A1.84,1.84,0,0,0,1012.74,641.69Z"/><path class="cls-2" d="M1010,650.86l2.19-2.71-2.35-2.22-.05.05a2.06,2.06,0,0,1,0,.92,2.27,2.27,0,0,1-.47.91,2.81,2.81,0,0,1-.72.63,2,2,0,0,1-.81.27,2.22,2.22,0,0,1-.87-.11,3,3,0,0,1-1.56-1.27,2.05,2.05,0,0,1-.3-.88,2.32,2.32,0,0,1,.1-.93,3,3,0,0,1,.52-.92,3.58,3.58,0,0,1,.59-.58,2.58,2.58,0,0,1,.62-.35,2.38,2.38,0,0,1,.64-.15,3.43,3.43,0,0,1,.64,0l0,.63a2.73,2.73,0,0,0-1.08.1,2.16,2.16,0,0,0-1,.73,1.76,1.76,0,0,0-.46,1.34,1.74,1.74,0,0,0,.7,1.17l.14.11a1.61,1.61,0,0,0,2.48-.28,2.51,2.51,0,0,0,.3-.45,1.87,1.87,0,0,0,.15-.41,1.81,1.81,0,0,0,0-.4,3.13,3.13,0,0,0,0-.42l.43-.39,3.08,2.85-2.53,3.13Z"/><path class="cls-2" d="M1005.69,656.07l2.24-2.68-2.32-2.25-.05,0a2.06,2.06,0,0,1,0,.92,2.34,2.34,0,0,1-.49.91,2.61,2.61,0,0,1-.73.61,2,2,0,0,1-.82.26,2.16,2.16,0,0,1-.86-.12,3,3,0,0,1-.87-.51,2.88,2.88,0,0,1-.67-.79,2.12,2.12,0,0,1-.29-.89,2.54,2.54,0,0,1,.12-.93,2.84,2.84,0,0,1,.54-.9,2.66,2.66,0,0,1,.6-.57,2.24,2.24,0,0,1,.62-.34,2.55,2.55,0,0,1,.65-.15,4.53,4.53,0,0,1,.64,0l0,.63a2.6,2.6,0,0,0-1.09.08,2.1,2.1,0,0,0-1,.71,1.75,1.75,0,0,0-.48,1.33,1.73,1.73,0,0,0,.68,1.19l.13.11a1.8,1.8,0,0,0,1.28.47,1.77,1.77,0,0,0,1.21-.7,3.33,3.33,0,0,0,.31-.45,1.87,1.87,0,0,0,.15-.41,1.83,1.83,0,0,0,0-.4,3.19,3.19,0,0,0,0-.42l.43-.38,3,2.9-2.58,3.09Z"/></g><g id="_1960" data-name="1960"><path class="cls-2" d="M938.6,708.75l.34.47-1.86,1.35,3.92,5.37,0,0,.6-2.78.55.12-.62,2.87-.81.6-4.2-5.77-1.74,1.27-.34-.47Z"/><path class="cls-2" d="M932.13,719.54a5,5,0,0,1-.75-1.5,6,6,0,0,1-.27-1.52,6.44,6.44,0,0,1,.5-2.74l.7-.49a12.68,12.68,0,0,0-.43,1.38,6.4,6.4,0,0,0-.19,1.27,5.53,5.53,0,0,0,.09,1.22,5.71,5.71,0,0,0,.39,1.24l.05,0a2.31,2.31,0,0,1,.15-1.11,2.15,2.15,0,0,1,.79-.93,2.82,2.82,0,0,1,.87-.4,2,2,0,0,1,.87,0,2,2,0,0,1,.81.33,2.78,2.78,0,0,1,.7.71,2.51,2.51,0,0,1,.44.94,2.09,2.09,0,0,1,0,.93,2.21,2.21,0,0,1-.35.86,2.74,2.74,0,0,1-.74.74,2.68,2.68,0,0,1-1,.46,2.12,2.12,0,0,1-1,0,2.41,2.41,0,0,1-.9-.46A3.81,3.81,0,0,1,932.13,719.54Zm1.2-2.64a1.84,1.84,0,0,0-.83,1.17,1.78,1.78,0,0,0,.35,1.33l.11.15a1.74,1.74,0,0,0,1.13.78,2.13,2.13,0,0,0,2.2-1.55,1.72,1.72,0,0,0-.34-1.33l-.11-.15a1.76,1.76,0,0,0-1.14-.78A1.85,1.85,0,0,0,933.33,716.9Z"/><path class="cls-2" d="M925.74,717.66a2.82,2.82,0,0,1,1-.44,2.12,2.12,0,0,1,1,0,2.44,2.44,0,0,1,.9.47,4.16,4.16,0,0,1,.78.87,5.48,5.48,0,0,1,.72,1.51,5.93,5.93,0,0,1,.24,1.52,6.31,6.31,0,0,1-.13,1.45,7.68,7.68,0,0,1-.42,1.28l-.71.49a10.61,10.61,0,0,0,.46-1.38,7.47,7.47,0,0,0,.21-1.27,5,5,0,0,0-.08-1.22,6.16,6.16,0,0,0-.36-1.24h-.05a2.06,2.06,0,0,1-1,2,2.25,2.25,0,0,1-.87.39,2,2,0,0,1-.87,0,1.93,1.93,0,0,1-.81-.34,2.77,2.77,0,0,1-.68-.72,3,3,0,0,1-.43-.94,2.44,2.44,0,0,1,0-.93,2.25,2.25,0,0,1,.37-.86A2.75,2.75,0,0,1,925.74,717.66Zm.33.47a1.78,1.78,0,0,0-.84,1.15,1.67,1.67,0,0,0,.32,1.33l.11.17a1.75,1.75,0,0,0,1.11.79,2.12,2.12,0,0,0,2.23-1.51,1.71,1.71,0,0,0-.32-1.33l-.11-.16a1.73,1.73,0,0,0-1.11-.8A1.87,1.87,0,0,0,926.07,718.13Z"/><path class="cls-2" d="M920.2,721.33a2.2,2.2,0,0,1,2.2-.24,5.52,5.52,0,0,1,2.17,2.16,5.66,5.66,0,0,1,1.09,2.85,2.47,2.47,0,0,1-3.33,2.16,7.18,7.18,0,0,1-3.25-5A2.21,2.21,0,0,1,920.2,721.33Zm.31.49a1.56,1.56,0,0,0-.81,1.42,4.06,4.06,0,0,0,.77,2l.57.87a4,4,0,0,0,1.55,1.53,1.77,1.77,0,0,0,2.44-1.58,4,4,0,0,0-.77-2l-.56-.88a4.08,4.08,0,0,0-1.56-1.53A1.55,1.55,0,0,0,920.51,721.82Zm1.58,2.43a.61.61,0,0,1,.41-.12.47.47,0,0,1,.27.19l.09.15a.41.41,0,0,1,.07.32.59.59,0,0,1-.28.32.52.52,0,0,1-.41.12A.43.43,0,0,1,922,725l-.09-.14a.41.41,0,0,1-.07-.32A.57.57,0,0,1,922.09,724.25Z"/></g><g id="_1965" data-name="1965"><path class="cls-2" d="M841.32,759.56l.19.55-2.17.74,2.16,6.29,0,0,1.39-2.47.49.27L842,767.48l-1,.33-2.32-6.75-2,.7-.18-.54Z"/><path class="cls-2" d="M832,768a5.15,5.15,0,0,1-.28-1.65,5.83,5.83,0,0,1,.2-1.53,5.75,5.75,0,0,1,.53-1.35,6.59,6.59,0,0,1,.74-1.12l.82-.27c-.31.41-.58.81-.82,1.2a6.43,6.43,0,0,0-.55,1.16,5.29,5.29,0,0,0-.28,1.19,6.3,6.3,0,0,0,0,1.3h0a2.31,2.31,0,0,1,.48-1,2.11,2.11,0,0,1,1-.65,2.47,2.47,0,0,1,1-.14,2.18,2.18,0,0,1,.84.22,2.12,2.12,0,0,1,.68.56,3,3,0,0,1,.46.88,2.91,2.91,0,0,1,.14,1,2.3,2.3,0,0,1-.23.9,2.27,2.27,0,0,1-.6.72,3,3,0,0,1-2,.63,2.09,2.09,0,0,1-.92-.3,2.46,2.46,0,0,1-.73-.71A3.65,3.65,0,0,1,832,768Zm1.92-2.16a1.81,1.81,0,0,0-1.13.87,1.7,1.7,0,0,0-.06,1.37l.06.18a1.7,1.7,0,0,0,.85,1.07,1.81,1.81,0,0,0,1.42.05,1.86,1.86,0,0,0,1.14-.87,1.73,1.73,0,0,0,.06-1.38l-.06-.17a1.72,1.72,0,0,0-.85-1.08A1.84,1.84,0,0,0,833.87,765.81Z"/><path class="cls-2" d="M826.41,764.3a2.68,2.68,0,0,1,1.1-.12,2.16,2.16,0,0,1,.92.32,2.55,2.55,0,0,1,.72.71,4.5,4.5,0,0,1,.49,1.06,5.42,5.42,0,0,1,.24,1.66,5.83,5.83,0,0,1-.22,1.53,6.09,6.09,0,0,1-.55,1.34,7.89,7.89,0,0,1-.77,1.1l-.83.25a12.69,12.69,0,0,0,.85-1.18,7.23,7.23,0,0,0,.57-1.15,5.31,5.31,0,0,0,.29-1.19,6.14,6.14,0,0,0,0-1.29h0a2.27,2.27,0,0,1-.49,1,2.16,2.16,0,0,1-1,.63,2.67,2.67,0,0,1-.95.12,2.2,2.2,0,0,1-.85-.24,2,2,0,0,1-.66-.57,2.81,2.81,0,0,1-.45-.88,2.9,2.9,0,0,1-.12-1,2.22,2.22,0,0,1,.24-.9,2.29,2.29,0,0,1,.61-.71A2.72,2.72,0,0,1,826.41,764.3Zm.17.54a1.8,1.8,0,0,0-1.14.85,1.78,1.78,0,0,0-.09,1.37l.06.19a1.72,1.72,0,0,0,.83,1.08,1.77,1.77,0,0,0,1.42.07,1.82,1.82,0,0,0,1.16-.85,1.78,1.78,0,0,0,.09-1.37l-.06-.19a1.72,1.72,0,0,0-.83-1.08A1.85,1.85,0,0,0,826.58,764.84Z"/><path class="cls-2" d="M820,773.74l3.36-1-.65-3.17h-.06a2.1,2.1,0,0,1-.5.77,2.15,2.15,0,0,1-.92.48,2.8,2.8,0,0,1-.94.1,2.07,2.07,0,0,1-.82-.25,2.13,2.13,0,0,1-.65-.59,3.06,3.06,0,0,1-.54-1.94,2.09,2.09,0,0,1,.26-.89,2.29,2.29,0,0,1,.62-.7,2.79,2.79,0,0,1,1-.45,3.71,3.71,0,0,1,.82-.14,2.71,2.71,0,0,1,.71.08,2.16,2.16,0,0,1,.61.24,3.34,3.34,0,0,1,.53.37l-.38.5a2.57,2.57,0,0,0-.94-.54,2.07,2.07,0,0,0-1.2,0,1.8,1.8,0,0,0-1.15.83,1.75,1.75,0,0,0-.1,1.36l0,.17a1.62,1.62,0,0,0,2.19,1.21,2.36,2.36,0,0,0,.5-.2,1.64,1.64,0,0,0,.36-.25,2.52,2.52,0,0,0,.27-.3,2.56,2.56,0,0,0,.2-.37l.58-.07.88,4.1-3.88,1.1Z"/></g><g id="_1970" data-name="1970"><path class="cls-2" d="M731.17,779.87v.57l-2.29.07.2,6.65h.06l2.06-1.95.39.41-2.14,2-1,0-.21-7.13-2.15.07,0-.58Z"/><path class="cls-2" d="M719.74,785.12a5.25,5.25,0,0,1,.23-1.66,6,6,0,0,1,.64-1.41,6.34,6.34,0,0,1,.91-1.13,6.18,6.18,0,0,1,1-.84h.86a12.21,12.21,0,0,0-1.14.89,7,7,0,0,0-.87.95,5.52,5.52,0,0,0-.61,1.05,5.72,5.72,0,0,0-.39,1.25h.06a2.23,2.23,0,0,1,.75-.83,2.16,2.16,0,0,1,1.18-.32,2.81,2.81,0,0,1,.94.15,2.06,2.06,0,0,1,.74.46,2.13,2.13,0,0,1,.49.74,2.94,2.94,0,0,1,.18,1,2.82,2.82,0,0,1-.17,1,2.29,2.29,0,0,1-.49.79,2.45,2.45,0,0,1-.78.51,2.82,2.82,0,0,1-1,.2,2.86,2.86,0,0,1-1.09-.19,2.17,2.17,0,0,1-.79-.57,2.47,2.47,0,0,1-.49-.89A4.09,4.09,0,0,1,719.74,785.12Zm2.48-1.5a1.85,1.85,0,0,0-1.34.5,1.75,1.75,0,0,0-.46,1.29v.19a1.73,1.73,0,0,0,.5,1.28,1.77,1.77,0,0,0,1.34.46,1.81,1.81,0,0,0,1.34-.49,1.73,1.73,0,0,0,.47-1.29v-.19a1.72,1.72,0,0,0-.5-1.28A1.85,1.85,0,0,0,722.22,783.62Z"/><path class="cls-2" d="M716.88,780.11l-3.18,7.11,3.74,0v-1.59h.6l0,2.16-5,0v-.58l3.15-7.1Z"/><path class="cls-2" d="M708.89,779.87a2.18,2.18,0,0,1,2,1,7.18,7.18,0,0,1-.14,6,2.17,2.17,0,0,1-2,1,2.2,2.2,0,0,1-2-1,7.28,7.28,0,0,1,.14-6A2.19,2.19,0,0,1,708.89,779.87Zm0,.58a1.56,1.56,0,0,0-1.47.72,4.08,4.08,0,0,0-.52,2.12l0,1a4.19,4.19,0,0,0,.41,2.14,1.78,1.78,0,0,0,2.92.07,4.11,4.11,0,0,0,.51-2.12l0-1a4,4,0,0,0-.41-2.14A1.58,1.58,0,0,0,708.88,780.45Zm-.07,2.9a.56.56,0,0,1,.41.13.4.4,0,0,1,.11.31V784a.42.42,0,0,1-.13.3.71.71,0,0,1-.82,0,.4.4,0,0,1-.11-.3v-.18a.46.46,0,0,1,.13-.3A.53.53,0,0,1,708.81,783.35Z"/></g><g id="_1975" data-name="1975"><path class="cls-2" d="M620.33,766.31l-.16.55-2.21-.6-1.75,6.41h0l2.55-1.26.25.5-2.64,1.31-1-.26,1.88-6.88-2.08-.57.15-.55Z"/><path class="cls-2" d="M607.86,768a5.19,5.19,0,0,1,.71-1.52,5.73,5.73,0,0,1,1-1.16,6.66,6.66,0,0,1,1.2-.81A6.77,6.77,0,0,1,612,764l.83.24a12.26,12.26,0,0,0-1.35.53,6,6,0,0,0-1.11.65,5.44,5.44,0,0,0-.9.83,6.36,6.36,0,0,0-.73,1.08l.05,0a2.16,2.16,0,0,1,1-.57,2,2,0,0,1,1.22,0,2.47,2.47,0,0,1,.86.42,2,2,0,0,1,.58.66,2,2,0,0,1,.24.84,2.67,2.67,0,0,1-.11,1,2.74,2.74,0,0,1-.46.92,2.16,2.16,0,0,1-.7.62,2.41,2.41,0,0,1-.9.26,2.91,2.91,0,0,1-1-.11,2.74,2.74,0,0,1-1-.5,2.18,2.18,0,0,1-.59-.77,2.65,2.65,0,0,1-.21-1A4.07,4.07,0,0,1,607.86,768Zm2.81-.71a1.8,1.8,0,0,0-1.42.09,1.77,1.77,0,0,0-.83,1.1l0,.18a1.73,1.73,0,0,0,.1,1.37,2.1,2.1,0,0,0,2.58.75,1.71,1.71,0,0,0,.83-1.1l0-.18a1.74,1.74,0,0,0-.1-1.37A1.86,1.86,0,0,0,610.67,767.28Z"/><path class="cls-2" d="M606.6,762.37l-5.13,5.87,3.57,1.11.48-1.52.57.18-.65,2.07-4.78-1.49.17-.56,5.09-5.88Z"/><path class="cls-2" d="M594.69,766l3.31,1.1,1.25-3-.06,0a2,2,0,0,1-.85.37,2.27,2.27,0,0,1-1-.13,2.44,2.44,0,0,1-.83-.44,1.91,1.91,0,0,1-.54-.67,2,2,0,0,1-.21-.85,3,3,0,0,1,.15-1,2.78,2.78,0,0,1,.49-.92,2.15,2.15,0,0,1,.72-.59,2.26,2.26,0,0,1,.91-.23,3,3,0,0,1,1,.16,3.24,3.24,0,0,1,.75.35,2.73,2.73,0,0,1,.54.46,2.21,2.21,0,0,1,.37.55,2.57,2.57,0,0,1,.23.6l-.6.19a2.32,2.32,0,0,0-.47-1,2.05,2.05,0,0,0-1-.64,1.77,1.77,0,0,0-1.42,0,1.79,1.79,0,0,0-.85,1.07l-.06.17a1.81,1.81,0,0,0,0,1.36,1.74,1.74,0,0,0,1.1.86,2.54,2.54,0,0,0,.53.13,2.12,2.12,0,0,0,.44,0,1.86,1.86,0,0,0,.39-.1,2.16,2.16,0,0,0,.37-.19l.52.27-1.58,3.88-3.83-1.27Z"/></g><g id="_1980" data-name="1980"><path class="cls-2" d="M518.85,720.63l-.3.48-1.94-1.23L513,725.49l0,0,2.81-.46.09.56-2.9.47-.85-.54,3.83-6-1.82-1.16.31-.48Z"/><path class="cls-2" d="M506.45,718.55a5.47,5.47,0,0,1,1.13-1.25,6,6,0,0,1,1.32-.8,6.65,6.65,0,0,1,1.38-.43,7,7,0,0,1,1.34-.11l.72.48a12.52,12.52,0,0,0-1.44.1,6.73,6.73,0,0,0-1.25.29,5.66,5.66,0,0,0-1.11.53,6.13,6.13,0,0,0-1,.81l0,0a2.27,2.27,0,0,1,1.09-.26,2.13,2.13,0,0,1,1.16.4,2.43,2.43,0,0,1,.69.66,2.05,2.05,0,0,1,.34,1.67,2.79,2.79,0,0,1-.4.91,2.84,2.84,0,0,1-.71.75,2.23,2.23,0,0,1-.85.38,2.3,2.3,0,0,1-.94,0,2.93,2.93,0,0,1-1.75-1.18,2.11,2.11,0,0,1-.34-.91,2.52,2.52,0,0,1,.1-1A3.86,3.86,0,0,1,506.45,718.55Zm2.9.15a1.85,1.85,0,0,0-1.39-.34,1.75,1.75,0,0,0-1.11.81l-.1.16a1.7,1.7,0,0,0-.31,1.33,1.77,1.77,0,0,0,.85,1.14,1.82,1.82,0,0,0,1.39.35,1.7,1.7,0,0,0,1.11-.81l.11-.15a1.73,1.73,0,0,0,.3-1.34A1.85,1.85,0,0,0,509.35,718.7Z"/><path class="cls-2" d="M505.89,711.93a3.47,3.47,0,0,1,.83.78,2.4,2.4,0,0,1,.43.84,1.88,1.88,0,0,1,0,.85,2.21,2.21,0,0,1-.36.82,1.82,1.82,0,0,1-1.09.82,2.1,2.1,0,0,1-1.34-.12l0,.06a2,2,0,0,1,.45,1.11,1.88,1.88,0,0,1-.36,1.17,1.74,1.74,0,0,1-1.32.8,3.19,3.19,0,0,1-2.89-2,1.75,1.75,0,0,1,.28-1.52,1.85,1.85,0,0,1,1-.75,1.87,1.87,0,0,1,1.19,0l0-.06a2.11,2.11,0,0,1-.6-1.21,1.89,1.89,0,0,1,.38-1.32,2.1,2.1,0,0,1,.64-.62,1.75,1.75,0,0,1,.8-.28,2.57,2.57,0,0,1,.94.09A3.7,3.7,0,0,1,505.89,711.93Zm-2.52,3.67a1.92,1.92,0,0,0-1.25-.41,1.21,1.21,0,0,0-.94.57l-.11.16a1.21,1.21,0,0,0-.2,1.09,2,2,0,0,0,.83,1,1.92,1.92,0,0,0,1.24.4,1.21,1.21,0,0,0,.94-.57l.12-.16a1.23,1.23,0,0,0,.19-1.09A1.87,1.87,0,0,0,503.37,715.6Zm2.19-3.19a2.13,2.13,0,0,0-1.4-.46,1.37,1.37,0,0,0-1.07.62l-.14.21a1.39,1.39,0,0,0-.22,1.22,2.29,2.29,0,0,0,.94,1.15,2.26,2.26,0,0,0,1.41.47,1.36,1.36,0,0,0,1.07-.64l.14-.2a1.35,1.35,0,0,0,.21-1.22A2.16,2.16,0,0,0,505.56,712.41Z"/><path class="cls-2" d="M500.43,708.1a2.19,2.19,0,0,1,1,2,5.5,5.5,0,0,1-1.21,2.8,5.56,5.56,0,0,1-2.26,2,2.47,2.47,0,0,1-3.23-2.3,7.26,7.26,0,0,1,3.48-4.86A2.19,2.19,0,0,1,500.43,708.1Zm-.33.47a1.56,1.56,0,0,0-1.63-.23,4.12,4.12,0,0,0-1.62,1.46l-.6.85a4.06,4.06,0,0,0-.86,2,1.76,1.76,0,0,0,2.37,1.69,4.11,4.11,0,0,0,1.61-1.46L500,712a4.13,4.13,0,0,0,.86-2A1.55,1.55,0,0,0,500.1,708.57Zm-1.69,2.36a.57.57,0,0,1,.26.34.39.39,0,0,1-.08.31l-.1.15a.44.44,0,0,1-.27.17.75.75,0,0,1-.67-.47.41.41,0,0,1,.08-.32l.1-.14a.41.41,0,0,1,.28-.18A.57.57,0,0,1,498.41,710.93Z"/></g><g id="_1985" data-name="1985"><path class="cls-2" d="M437.39,649.21l-.44.37-1.49-1.75-5.06,4.31,0,0,2.81.39-.08.56-2.91-.41-.65-.76,5.43-4.63-1.4-1.63.44-.38Z"/><path class="cls-2" d="M426.14,643.57a5.14,5.14,0,0,1,1.44-.86,5.51,5.51,0,0,1,1.5-.38,5.86,5.86,0,0,1,1.45,0,6.45,6.45,0,0,1,1.31.29l.55.66q-.75-.21-1.41-.33a7.08,7.08,0,0,0-1.28-.09,6.09,6.09,0,0,0-1.21.18,6.34,6.34,0,0,0-1.21.48l0,.05a2.35,2.35,0,0,1,1.12.07,2.21,2.21,0,0,1,1,.72,2.72,2.72,0,0,1,.47.84,2.1,2.1,0,0,1,.1.86,1.89,1.89,0,0,1-.27.84,2.5,2.5,0,0,1-.65.74,3,3,0,0,1-.9.52,2.26,2.26,0,0,1-.92.11,2.32,2.32,0,0,1-.9-.29,2.78,2.78,0,0,1-.79-.68,2.67,2.67,0,0,1-.53-1,2.14,2.14,0,0,1-.06-1,2.5,2.5,0,0,1,.39-.93A4,4,0,0,1,426.14,643.57Zm2.72,1a1.81,1.81,0,0,0-1.22-.74,1.76,1.76,0,0,0-1.3.45l-.15.12a1.73,1.73,0,0,0-.68,1.19,1.77,1.77,0,0,0,.48,1.34,1.8,1.8,0,0,0,1.22.73,1.71,1.71,0,0,0,1.3-.44l.15-.12a1.73,1.73,0,0,0,.68-1.19A1.8,1.8,0,0,0,428.86,644.57Z"/><path class="cls-2" d="M427.54,637.07a3.4,3.4,0,0,1,.56,1,2.46,2.46,0,0,1,.16.93,1.83,1.83,0,0,1-.22.83,2.23,2.23,0,0,1-.59.68,1.86,1.86,0,0,1-1.28.46,2.17,2.17,0,0,1-1.25-.51l-.06,0a1.83,1.83,0,0,1,.11,1.19,1.81,1.81,0,0,1-.69,1,1.72,1.72,0,0,1-1.49.38,2.61,2.61,0,0,1-1.5-1.05,2.68,2.68,0,0,1-.68-1.7,1.74,1.74,0,0,1,.71-1.37,1.79,1.79,0,0,1,2.28-.06l.06,0a2.08,2.08,0,0,1-.21-1.32,1.82,1.82,0,0,1,.74-1.15,2.1,2.1,0,0,1,.8-.41,1.75,1.75,0,0,1,.85,0,2.48,2.48,0,0,1,.87.36A3.54,3.54,0,0,1,427.54,637.07Zm-3.49,2.76a2,2,0,0,0-1.07-.76,1.25,1.25,0,0,0-1.07.27l-.16.13a1.21,1.21,0,0,0-.5,1,2.34,2.34,0,0,0,1.55,2,1.27,1.27,0,0,0,1.08-.27L424,642a1.21,1.21,0,0,0,.51-1A1.94,1.94,0,0,0,424.05,639.83Zm3-2.4a2.29,2.29,0,0,0-1.21-.86,1.38,1.38,0,0,0-1.21.29l-.2.16a1.35,1.35,0,0,0-.56,1.1,2.66,2.66,0,0,0,1.77,2.24,1.37,1.37,0,0,0,1.21-.3l.2-.15a1.37,1.37,0,0,0,.55-1.11A2.21,2.21,0,0,0,427.09,637.43Z"/><path class="cls-2" d="M416.39,634.53l2.11,2.77,2.71-1.76,0-.06a2,2,0,0,1-.9-.17,2.3,2.3,0,0,1-.78-.68,2.83,2.83,0,0,1-.44-.84,2.11,2.11,0,0,1-.07-.86,2.23,2.23,0,0,1,.31-.82,3.17,3.17,0,0,1,1.61-1.22,2.15,2.15,0,0,1,1.8.24,3.06,3.06,0,0,1,.77.72,3.2,3.2,0,0,1,.43.71,2.75,2.75,0,0,1,.19.69,2.43,2.43,0,0,1,0,.66,2.62,2.62,0,0,1-.14.63l-.61-.18a2.41,2.41,0,0,0,.16-1.07,2.19,2.19,0,0,0-.48-1.1,1.66,1.66,0,0,0-2.5-.36l-.14.11a1.83,1.83,0,0,0-.74,1.14,1.78,1.78,0,0,0,.43,1.34,2.88,2.88,0,0,0,.36.4,1.67,1.67,0,0,0,.37.24,1.71,1.71,0,0,0,.38.13,2.7,2.7,0,0,0,.41.06l.28.51-3.49,2.32-2.45-3.2Z"/></g><g id="_1990" data-name="1990"><path id="_1990-2" data-name="1990" class="cls-2" d="M379.26,556.32l-.52.23-.91-2.11-6.11,2.64,0,0,2.57,1.19-.24.51-2.66-1.24-.4-.92,6.55-2.83-.86-2,.53-.23Z"/><path class="cls-2" d="M370.17,547.65a5.31,5.31,0,0,1,1.64-.4,6,6,0,0,1,1.54.07,6.73,6.73,0,0,1,1.38.43,6.34,6.34,0,0,1,1.18.66l.32.8a11.16,11.16,0,0,0-1.25-.73,5.91,5.91,0,0,0-1.2-.46,5.54,5.54,0,0,0-1.21-.19,6,6,0,0,0-1.3.11v0a2.2,2.2,0,0,1,1.05.4,2.12,2.12,0,0,1,.73,1,2.76,2.76,0,0,1,.21.94,2.27,2.27,0,0,1-.16.86,2.13,2.13,0,0,1-.5.72,2.92,2.92,0,0,1-.84.52,2.75,2.75,0,0,1-1,.22,2.15,2.15,0,0,1-.92-.16,2.34,2.34,0,0,1-.77-.54,2.71,2.71,0,0,1-.56-.88,2.74,2.74,0,0,1-.22-1.08,2.18,2.18,0,0,1,.23-1,2.48,2.48,0,0,1,.65-.78A4,4,0,0,1,370.17,547.65Zm2.31,1.75a1.86,1.86,0,0,0-1-1.06,1.73,1.73,0,0,0-1.37,0l-.18.08a1.73,1.73,0,0,0-1,.93,2.13,2.13,0,0,0,1,2.48,1.75,1.75,0,0,0,1.38,0l.17-.08a1.73,1.73,0,0,0,1-.93A1.84,1.84,0,0,0,372.48,549.4Z"/><path class="cls-2" d="M367.7,541.34a5.53,5.53,0,0,1,1.64-.37,6,6,0,0,1,1.54.11,6.2,6.2,0,0,1,1.38.45,7.22,7.22,0,0,1,1.16.68l.31.8a13.22,13.22,0,0,0-1.24-.75,5.93,5.93,0,0,0-1.19-.48,5.58,5.58,0,0,0-1.21-.21,6.57,6.57,0,0,0-1.3.08v.06a2.29,2.29,0,0,1,1.05.41,2.15,2.15,0,0,1,.71,1,3,3,0,0,1,.19.94,2.07,2.07,0,0,1-.18.86,2,2,0,0,1-.51.71,2.94,2.94,0,0,1-.85.5,2.74,2.74,0,0,1-1,.21,2.27,2.27,0,0,1-.91-.18,2.38,2.38,0,0,1-.76-.55,2.65,2.65,0,0,1-.54-.89,2.8,2.8,0,0,1-.21-1.09,2.26,2.26,0,0,1,.25-.94,2.66,2.66,0,0,1,.66-.77A4.51,4.51,0,0,1,367.7,541.34Zm2.27,1.8a1.78,1.78,0,0,0-.93-1.08,1.76,1.76,0,0,0-1.37,0l-.18.07a1.72,1.72,0,0,0-1,.91,1.83,1.83,0,0,0,0,1.43,1.88,1.88,0,0,0,.93,1.08,1.74,1.74,0,0,0,1.38,0l.17-.06a1.81,1.81,0,0,0,1-.92A1.83,1.83,0,0,0,370,543.14Z"/><path class="cls-2" d="M371.05,535.6a2.21,2.21,0,0,1-.25,2.21,5.66,5.66,0,0,1-2.58,1.64,5.45,5.45,0,0,1-3,.42,2.46,2.46,0,0,1-1.38-3.71,7.25,7.25,0,0,1,5.61-2.07A2.2,2.2,0,0,1,371.05,535.6Zm-.54.2a1.57,1.57,0,0,0-1.21-1.1,4.06,4.06,0,0,0-2.17.3l-1,.36a4.09,4.09,0,0,0-1.84,1.17,1.58,1.58,0,0,0-.21,1.63,1.61,1.61,0,0,0,1.22,1.11,4.13,4.13,0,0,0,2.16-.31l1-.36a4.07,4.07,0,0,0,1.85-1.17A1.6,1.6,0,0,0,370.51,535.8Zm-2.72,1a.56.56,0,0,1,0,.42.4.4,0,0,1-.24.22l-.17.06a.4.4,0,0,1-.32,0,.6.6,0,0,1-.26-.34.59.59,0,0,1,0-.43.42.42,0,0,1,.24-.21l.17-.07a.44.44,0,0,1,.32,0A.59.59,0,0,1,367.79,536.81Z"/></g><g id="_1995" data-name="1995"><path class="cls-2" d="M351.78,448.42l-.57.06L351,446.2l-6.61.71v0l2.11,1.91-.38.42-2.18-2-.1-1,7.09-.76-.23-2.14.57-.06Z"/><path class="cls-2" d="M345.67,437.42a5.48,5.48,0,0,1,1.68.1,6.26,6.26,0,0,1,1.45.53,6.42,6.42,0,0,1,1.19.82,6.54,6.54,0,0,1,.93,1l.07.85a12.79,12.79,0,0,0-1-1.06,6.62,6.62,0,0,0-1-.8,5.14,5.14,0,0,0-1.11-.53,5.78,5.78,0,0,0-1.27-.29v.06a2.29,2.29,0,0,1,.88.68,2.14,2.14,0,0,1,.41,1.15,2.72,2.72,0,0,1-.08,1,2.26,2.26,0,0,1-.4.77,2.22,2.22,0,0,1-.7.54,2.61,2.61,0,0,1-1,.25,2.69,2.69,0,0,1-1-.09,2.22,2.22,0,0,1-1.4-1.17,2.64,2.64,0,0,1-.27-1,2.78,2.78,0,0,1,.1-1.1,2.11,2.11,0,0,1,.51-.84,2.5,2.5,0,0,1,.84-.55A4,4,0,0,1,345.67,437.42Zm1.68,2.36a1.83,1.83,0,0,0-.59-1.3,1.74,1.74,0,0,0-1.33-.36h-.18a1.74,1.74,0,0,0-1.24.6,2.11,2.11,0,0,0,.24,2.67,1.67,1.67,0,0,0,1.32.37h.19a1.73,1.73,0,0,0,1.23-.6A1.79,1.79,0,0,0,347.35,439.78Z"/><path class="cls-2" d="M345.18,430.7a5.38,5.38,0,0,1,1.67.13,5.76,5.76,0,0,1,1.44.56,6.05,6.05,0,0,1,1.19.84,6.83,6.83,0,0,1,.9,1l.06.86a13.09,13.09,0,0,0-1-1.08,6.72,6.72,0,0,0-1-.82,5.87,5.87,0,0,0-1.09-.55,6.05,6.05,0,0,0-1.27-.31v.06a2.25,2.25,0,0,1,.88.7,2.16,2.16,0,0,1,.38,1.16,2.28,2.28,0,0,1-.1.95,2.2,2.2,0,0,1-.41.77,2.11,2.11,0,0,1-.71.52,2.61,2.61,0,0,1-1,.23,2.66,2.66,0,0,1-1-.1,2.19,2.19,0,0,1-.82-.45,2.24,2.24,0,0,1-.56-.75,2.68,2.68,0,0,1-.25-1,2.76,2.76,0,0,1,.12-1.1,2.25,2.25,0,0,1,.52-.82,2.57,2.57,0,0,1,.86-.54A4,4,0,0,1,345.18,430.7Zm1.64,2.39a1.84,1.84,0,0,0-.57-1.31,1.81,1.81,0,0,0-1.32-.39l-.19,0a1.77,1.77,0,0,0-1.25.57,2.13,2.13,0,0,0,.19,2.68,1.72,1.72,0,0,0,1.32.39h.19a1.74,1.74,0,0,0,1.25-.58A1.84,1.84,0,0,0,346.82,433.09Z"/><path class="cls-2" d="M342.71,424.45l.19,3.49,3.23.07v-.07a1.92,1.92,0,0,1-.65-.65,2.19,2.19,0,0,1-.26-1,2.61,2.61,0,0,1,.11-.94,1.87,1.87,0,0,1,.43-.75,2.17,2.17,0,0,1,.71-.5,3,3,0,0,1,1-.22,2.84,2.84,0,0,1,1,.12,2.14,2.14,0,0,1,1.36,1.22,2.94,2.94,0,0,1,.23,1,3.17,3.17,0,0,1-.05.83,2.72,2.72,0,0,1-.23.68,2.58,2.58,0,0,1-.37.54,3.22,3.22,0,0,1-.48.43l-.4-.48a2.66,2.66,0,0,0,.74-.8,2.19,2.19,0,0,0,.22-1.18A1.76,1.76,0,0,0,349,425a1.73,1.73,0,0,0-1.3-.4h-.18a1.62,1.62,0,0,0-1.66,1.87,2.58,2.58,0,0,0,.08.53,1.68,1.68,0,0,0,.17.41,1.44,1.44,0,0,0,.23.32,2.87,2.87,0,0,0,.31.29l-.06.57-4.19-.05-.21-4Z"/></g><g id="_2000" data-name="2000"><path class="cls-2" d="M358,332.41l-1,4.92-.66-.13-2-3.17a5.51,5.51,0,0,0-.88-1.09,2.16,2.16,0,0,0-1.07-.55l-.21,0a1.6,1.6,0,0,0-1.2.18,1.55,1.55,0,0,0-.64,1.09,1.7,1.7,0,0,0,.15,1.25,2.17,2.17,0,0,0,.88.81l-.31.53a2.76,2.76,0,0,1-.61-.42,1.88,1.88,0,0,1-.46-.58,2.2,2.2,0,0,1-.25-.76,2.83,2.83,0,0,1,0-.95,2.63,2.63,0,0,1,.34-.92,2.18,2.18,0,0,1,.57-.63,2,2,0,0,1,.77-.3,2.57,2.57,0,0,1,.91,0,2.74,2.74,0,0,1,1.38.69,6.94,6.94,0,0,1,1.08,1.35l1.76,2.82.82-4.24Z"/><path class="cls-2" d="M359,328.42a2.19,2.19,0,0,1-1.38,1.73,5.56,5.56,0,0,1-3.06,0,5.67,5.67,0,0,1-2.79-1.24,2.46,2.46,0,0,1,.82-3.88,5.54,5.54,0,0,1,3.06,0,5.67,5.67,0,0,1,2.79,1.25A2.19,2.19,0,0,1,359,328.42Zm-.56-.12a1.59,1.59,0,0,0-.44-1.59,4.15,4.15,0,0,0-2-.89l-1-.21a4.07,4.07,0,0,0-2.18,0,1.78,1.78,0,0,0-.6,2.85,4.1,4.1,0,0,0,2,.9l1,.21a4.2,4.2,0,0,0,2.19,0A1.58,1.58,0,0,0,358.44,328.3Zm-2.84-.6a.59.59,0,0,1-.2.37.45.45,0,0,1-.32.06l-.18,0a.39.39,0,0,1-.27-.18.57.57,0,0,1,0-.42.55.55,0,0,1,.2-.38.44.44,0,0,1,.32-.06l.18,0a.5.5,0,0,1,.27.18A.59.59,0,0,1,355.6,327.7Z"/><path class="cls-2" d="M360.44,321.91a2.21,2.21,0,0,1-1.42,1.71,5.61,5.61,0,0,1-3,0,5.55,5.55,0,0,1-2.77-1.3,2.46,2.46,0,0,1,.89-3.86,7.28,7.28,0,0,1,5.82,1.33A2.21,2.21,0,0,1,360.44,321.91Zm-.56-.13a1.58,1.58,0,0,0-.41-1.59,4.07,4.07,0,0,0-2-.93l-1-.23a4,4,0,0,0-2.18,0,1.59,1.59,0,0,0-1.07,1.25,1.56,1.56,0,0,0,.42,1.59,4,4,0,0,0,2,.93l1,.23a4.06,4.06,0,0,0,2.19,0A1.58,1.58,0,0,0,359.88,321.78Zm-2.83-.65a.53.53,0,0,1-.21.37.4.4,0,0,1-.32.05l-.18,0a.44.44,0,0,1-.26-.18.59.59,0,0,1,0-.43.53.53,0,0,1,.21-.37.4.4,0,0,1,.32,0l.18,0a.44.44,0,0,1,.26.18A.59.59,0,0,1,357.05,321.13Z"/><path class="cls-2" d="M362,315.45a2.19,2.19,0,0,1-1.44,1.68,5.56,5.56,0,0,1-3.06-.1,5.64,5.64,0,0,1-2.74-1.34,2.47,2.47,0,0,1,1-3.85,7.18,7.18,0,0,1,5.79,1.44A2.17,2.17,0,0,1,362,315.45Zm-.55-.14a1.6,1.6,0,0,0-.38-1.6,4.12,4.12,0,0,0-2-1l-1-.25a4,4,0,0,0-2.18-.07,1.58,1.58,0,0,0-1.09,1.23,1.6,1.6,0,0,0,.38,1.6,4.13,4.13,0,0,0,2,1l1,.25a4,4,0,0,0,2.18.07A1.58,1.58,0,0,0,361.43,315.31Zm-2.82-.7a.55.55,0,0,1-.22.36.4.4,0,0,1-.32,0l-.17,0a.43.43,0,0,1-.27-.2.74.74,0,0,1,.2-.79.4.4,0,0,1,.32,0l.18,0a.42.42,0,0,1,.26.19A.55.55,0,0,1,358.61,314.61Z"/></g><g id="_2005" data-name="2005"><path class="cls-2" d="M395.32,231.83,393,236.26l-.6-.32-1-3.62a5.86,5.86,0,0,0-.52-1.31,2.19,2.19,0,0,0-.86-.85l-.19-.09a1.43,1.43,0,0,0-2.13.67,1.71,1.71,0,0,0-.23,1.24,2.18,2.18,0,0,0,.61,1l-.47.41a2.9,2.9,0,0,1-.45-.58,2.1,2.1,0,0,1-.27-.68,2.38,2.38,0,0,1,0-.8,2.64,2.64,0,0,1,.32-.9,2.74,2.74,0,0,1,.6-.79,1.93,1.93,0,0,1,.73-.42,1.84,1.84,0,0,1,.81-.06,2.48,2.48,0,0,1,.87.29,2.66,2.66,0,0,1,1.11,1.07,6.59,6.59,0,0,1,.64,1.61l.85,3.21,2-3.81Z"/><path class="cls-2" d="M397.42,228.31a2.2,2.2,0,0,1-1.84,1.24,5.51,5.51,0,0,1-2.92-.89,5.59,5.59,0,0,1-2.3-2,2.48,2.48,0,0,1,1.93-3.46,7.2,7.2,0,0,1,5.22,2.91A2.21,2.21,0,0,1,397.42,228.31Zm-.5-.28a1.59,1.59,0,0,0,.05-1.64,4.08,4.08,0,0,0-1.65-1.45l-.9-.5a4.1,4.1,0,0,0-2.09-.64,1.6,1.6,0,0,0-1.37.91,1.57,1.57,0,0,0,0,1.64,4.1,4.1,0,0,0,1.64,1.44l.9.51a4.06,4.06,0,0,0,2.1.63A1.58,1.58,0,0,0,396.92,228Zm-2.54-1.42a.55.55,0,0,1-.31.3.4.4,0,0,1-.32,0l-.15-.09a.4.4,0,0,1-.21-.25.71.71,0,0,1,.4-.71.4.4,0,0,1,.32,0l.16.08a.43.43,0,0,1,.2.26A.56.56,0,0,1,394.38,226.61Z"/><path class="cls-2" d="M400.7,222.54a2.2,2.2,0,0,1-1.86,1.21,7.32,7.32,0,0,1-5.16-3,2.46,2.46,0,0,1,2-3.43,7.22,7.22,0,0,1,5.17,3A2.2,2.2,0,0,1,400.7,222.54Zm-.49-.29a1.59,1.59,0,0,0,.08-1.64,4.16,4.16,0,0,0-1.62-1.48l-.89-.52a4.14,4.14,0,0,0-2.08-.67,1.59,1.59,0,0,0-1.39.88,1.57,1.57,0,0,0-.07,1.64,4.14,4.14,0,0,0,1.6,1.47l.9.52a4.1,4.1,0,0,0,2.08.68A1.62,1.62,0,0,0,400.21,222.25Zm-2.51-1.46a.6.6,0,0,1-.31.29.43.43,0,0,1-.33-.05l-.15-.09a.41.41,0,0,1-.2-.25.56.56,0,0,1,.1-.42.6.6,0,0,1,.31-.29.4.4,0,0,1,.32.05l.16.09a.41.41,0,0,1,.2.25A.61.61,0,0,1,397.7,220.79Z"/><path class="cls-2" d="M399,211.22l-1.81,3,2.63,1.88,0-.05a2,2,0,0,1-.16-.91,2.13,2.13,0,0,1,.35-1,2.39,2.39,0,0,1,.62-.71,1.85,1.85,0,0,1,.77-.38,2,2,0,0,1,.87,0,2.71,2.71,0,0,1,.94.37,2.87,2.87,0,0,1,.78.67,2.13,2.13,0,0,1,.44,1.77,2.87,2.87,0,0,1-.39,1,3.17,3.17,0,0,1-.5.66,2.51,2.51,0,0,1-.57.43,2.9,2.9,0,0,1-.62.23,2.76,2.76,0,0,1-.64.1l-.05-.63a2.53,2.53,0,0,0,1.05-.24,2.19,2.19,0,0,0,.85-.86,1.73,1.73,0,0,0,.27-1.39,1.75,1.75,0,0,0-.85-1.06l-.15-.09a1.75,1.75,0,0,0-1.33-.27,1.7,1.7,0,0,0-1.09.88,2.43,2.43,0,0,0-.24.49,1.74,1.74,0,0,0-.09.43,1.79,1.79,0,0,0,0,.4,2,2,0,0,0,.1.4l-.38.45-3.43-2.4,2.09-3.45Z"/></g><g id="_2010" data-name="2010"><path class="cls-2" d="M463.41,143.25l-3.56,3.52-.48-.47.12-3.76a5.64,5.64,0,0,0-.11-1.4,2.23,2.23,0,0,0-.57-1.06l-.15-.15a1.63,1.63,0,0,0-1.09-.53,1.56,1.56,0,0,0-1.15.55,1.75,1.75,0,0,0-.59,1.11,2.18,2.18,0,0,0,.28,1.16l-.56.27a2.88,2.88,0,0,1-.26-.69,1.85,1.85,0,0,1-.06-.74,2.12,2.12,0,0,1,.23-.77,2.7,2.7,0,0,1,.56-.76,2.61,2.61,0,0,1,.81-.57,1.87,1.87,0,0,1,1.62,0,2.6,2.6,0,0,1,.74.53,2.84,2.84,0,0,1,.75,1.35,6.73,6.73,0,0,1,.13,1.73l-.13,3.32,3.06-3Z"/><path class="cls-2" d="M466.46,140.49a2.21,2.21,0,0,1-2.12.65,7.15,7.15,0,0,1-4.13-4.32,2.46,2.46,0,0,1,2.86-2.74,5.48,5.48,0,0,1,2.53,1.71,5.56,5.56,0,0,1,1.6,2.61A2.2,2.2,0,0,1,466.46,140.49Zm-.4-.42a1.56,1.56,0,0,0,.53-1.55,4.06,4.06,0,0,0-1.14-1.86l-.72-.75a4,4,0,0,0-1.81-1.22,1.76,1.76,0,0,0-2.1,2,4.06,4.06,0,0,0,1.14,1.86l.71.75a4.16,4.16,0,0,0,1.82,1.23A1.6,1.6,0,0,0,466.06,140.07Zm-2-2.09a.57.57,0,0,1-.38.19.41.41,0,0,1-.29-.13l-.13-.13a.44.44,0,0,1-.12-.3.67.67,0,0,1,.21-.38.59.59,0,0,1,.38-.19.42.42,0,0,1,.3.13l.12.13a.37.37,0,0,1,.12.3A.57.57,0,0,1,464.05,138Z"/><path class="cls-2" d="M469.52,137.4l-.39-.42,1.69-1.56-4.51-4.88,0,0L466,133.4l-.56-.05.29-2.93.74-.68,4.83,5.24,1.58-1.46.4.43Z"/><path class="cls-2" d="M476.24,131.46a2.19,2.19,0,0,1-2.14.57,5.52,5.52,0,0,1-2.47-1.8,5.69,5.69,0,0,1-1.51-2.66,2.48,2.48,0,0,1,3-2.64,7.3,7.3,0,0,1,4,4.47A2.19,2.19,0,0,1,476.24,131.46Zm-.38-.43a1.6,1.6,0,0,0,.59-1.53,4.18,4.18,0,0,0-1.08-1.91l-.69-.77a4.2,4.2,0,0,0-1.76-1.29,1.62,1.62,0,0,0-1.6.4,1.6,1.6,0,0,0-.58,1.54,4.07,4.07,0,0,0,1.07,1.9l.69.78a4.1,4.1,0,0,0,1.77,1.28A1.57,1.57,0,0,0,475.86,131Zm-1.93-2.17a.55.55,0,0,1-.39.18.38.38,0,0,1-.29-.14l-.12-.14a.43.43,0,0,1-.11-.3.77.77,0,0,1,.61-.54.37.37,0,0,1,.29.14l.12.13a.4.4,0,0,1,.11.31A.53.53,0,0,1,473.93,128.86Z"/></g><g id="_2015" data-name="2015"><path class="cls-2" d="M552.21,80l-4.44,2.33-.31-.6,1.21-3.55a5.37,5.37,0,0,0,.3-1.38,2.06,2.06,0,0,0-.23-1.18l-.1-.18a1.43,1.43,0,0,0-2.14-.65,1.76,1.76,0,0,0-.89.9,2.24,2.24,0,0,0-.08,1.19l-.61.09a3.07,3.07,0,0,1,0-.74,2.27,2.27,0,0,1,.16-.72,2.5,2.5,0,0,1,.44-.67,2.89,2.89,0,0,1,.77-.56,2.6,2.6,0,0,1,.94-.31A2,2,0,0,1,548,74a1.86,1.86,0,0,1,.71.4,2.55,2.55,0,0,1,.55.73,2.69,2.69,0,0,1,.32,1.51,6.75,6.75,0,0,1-.38,1.69l-1.1,3.14,3.82-2Z"/><path class="cls-2" d="M555.93,78.23a2.2,2.2,0,0,1-2.22,0A7.26,7.26,0,0,1,551,72.89a2.48,2.48,0,0,1,3.55-1.78,7.3,7.3,0,0,1,2.68,5.34A2.21,2.21,0,0,1,555.93,78.23Zm-.26-.51a1.59,1.59,0,0,0,1-1.33,4,4,0,0,0-.55-2.12l-.46-.93a4.12,4.12,0,0,0-1.37-1.69A1.77,1.77,0,0,0,551.64,73a4.22,4.22,0,0,0,.55,2.11l.46.93A4.1,4.1,0,0,0,554,77.7,1.58,1.58,0,0,0,555.67,77.72Zm-1.31-2.6a.58.58,0,0,1-.42.08.4.4,0,0,1-.24-.22l-.08-.16a.44.44,0,0,1,0-.32.55.55,0,0,1,.31-.29.58.58,0,0,1,.42-.08.45.45,0,0,1,.25.22l.08.16a.4.4,0,0,1,0,.32A.52.52,0,0,1,554.36,75.12Z"/><path class="cls-2" d="M559.75,76.18l-.25-.52,2.07-1-2.88-6-.05,0-1.09,2.62-.52-.21,1.13-2.72.91-.43,3.09,6.43,1.94-.94.25.52Z"/><path class="cls-2" d="M566.83,65l-3.17,1.46,1.12,3,.07,0a1.9,1.9,0,0,1,.37-.84,2.21,2.21,0,0,1,.83-.61,2.62,2.62,0,0,1,.92-.24,2,2,0,0,1,.85.12,2.1,2.1,0,0,1,.73.48,2.81,2.81,0,0,1,.56.83,2.77,2.77,0,0,1,.27,1,2.21,2.21,0,0,1-.12.93,2.39,2.39,0,0,1-.51.78,2.8,2.8,0,0,1-.87.6,3.27,3.27,0,0,1-.79.25,2.44,2.44,0,0,1-.71,0,2.3,2.3,0,0,1-.64-.15,3.46,3.46,0,0,1-.58-.28l.3-.55a2.62,2.62,0,0,0,1,.39,2.12,2.12,0,0,0,1.17-.23,1.65,1.65,0,0,0,.9-2.36l-.07-.16a1.62,1.62,0,0,0-2.35-.85,2.08,2.08,0,0,0-.47.27,1.54,1.54,0,0,0-.32.3,2.39,2.39,0,0,0-.21.34,2.26,2.26,0,0,0-.15.39l-.56.16-1.49-3.92,3.66-1.68Z"/></g><g id="_2020" data-name="2020"><path class="cls-2" d="M655.39,45.6l-4.92.91-.12-.66,2.2-3a5.5,5.5,0,0,0,.7-1.22,2.07,2.07,0,0,0,.12-1.2l0-.21a1.59,1.59,0,0,0-.61-1,1.63,1.63,0,0,0-1.25-.2,1.76,1.76,0,0,0-1.11.6,2.2,2.2,0,0,0-.43,1.12l-.61-.1a2.91,2.91,0,0,1,.17-.72,1.88,1.88,0,0,1,.37-.64,2.12,2.12,0,0,1,.62-.51,2.74,2.74,0,0,1,.89-.31,2.56,2.56,0,0,1,1,0,1.9,1.9,0,0,1,.79.31,1.86,1.86,0,0,1,.56.59,2.59,2.59,0,0,1,.31.86,2.77,2.77,0,0,1-.14,1.54,6.51,6.51,0,0,1-.87,1.5l-2,2.67,4.24-.79Z"/><path class="cls-2" d="M659.48,45a2.2,2.2,0,0,1-2.13-.66,5.5,5.5,0,0,1-1.12-2.83,5.63,5.63,0,0,1,.14-3.06,2.47,2.47,0,0,1,3.91-.65,5.53,5.53,0,0,1,1.13,2.84,5.59,5.59,0,0,1-.14,3A2.2,2.2,0,0,1,659.48,45Zm-.1-.56a1.59,1.59,0,0,0,1.31-1,4.12,4.12,0,0,0,.11-2.18l-.17-1a4.11,4.11,0,0,0-.81-2,1.77,1.77,0,0,0-2.87.48,4,4,0,0,0-.11,2.18l.17,1a4,4,0,0,0,.81,2A1.58,1.58,0,0,0,659.38,44.47Zm-.48-2.87a.5.5,0,0,1-.42-.05.43.43,0,0,1-.17-.28l0-.17a.4.4,0,0,1,.07-.32.72.72,0,0,1,.81-.13.41.41,0,0,1,.17.27l0,.18a.46.46,0,0,1-.08.32A.54.54,0,0,1,658.9,41.6Z"/><path class="cls-2" d="M668.54,43.49l-5,.74-.1-.67,2.32-3a5.66,5.66,0,0,0,.74-1.2,2.14,2.14,0,0,0,.17-1.19l0-.21a1.59,1.59,0,0,0-.57-1.07,1.56,1.56,0,0,0-1.25-.24,1.69,1.69,0,0,0-1.12.55,2.16,2.16,0,0,0-.47,1.1l-.61-.12a3.55,3.55,0,0,1,.19-.71,2.32,2.32,0,0,1,.4-.63,2.19,2.19,0,0,1,.63-.48,3.16,3.16,0,0,1,1.9-.27,2.13,2.13,0,0,1,.78.34,1.91,1.91,0,0,1,.54.62,2.55,2.55,0,0,1,.27.86,2.79,2.79,0,0,1-.19,1.54,6.67,6.67,0,0,1-.92,1.47l-2.07,2.59,4.27-.63Z"/><path class="cls-2" d="M672.63,43.08a2.19,2.19,0,0,1-2.09-.73,5.53,5.53,0,0,1-1-2.88,5.6,5.6,0,0,1,.26-3,2.18,2.18,0,0,1,1.83-1.24,2.23,2.23,0,0,1,2.1.73,5.62,5.62,0,0,1,1,2.88,5.61,5.61,0,0,1-.25,3.05A2.2,2.2,0,0,1,672.63,43.08Zm-.07-.57a1.56,1.56,0,0,0,1.34-.93,4,4,0,0,0,.19-2.18l-.14-1a4,4,0,0,0-.73-2,1.77,1.77,0,0,0-2.89.37,4.22,4.22,0,0,0-.19,2.18l.14,1A4.11,4.11,0,0,0,671,42,1.59,1.59,0,0,0,672.56,42.51Zm-.38-2.87a.58.58,0,0,1-.42-.07.47.47,0,0,1-.16-.29l0-.17a.4.4,0,0,1,.08-.32.55.55,0,0,1,.39-.17.54.54,0,0,1,.42.07.42.42,0,0,1,.16.28l0,.18a.39.39,0,0,1-.08.31A.59.59,0,0,1,672.18,39.64Z"/></g></g></svg>
