<svg id="_year" xmlns="http://www.w3.org/2000/svg" viewBox="0 0 1440 820">
  <defs><style>.l_year{fill:#fff;}</style></defs>
  <g id="l_1920">
    <path d="M826.11,61.94A366.66,366.66,0,0,0,720.78,46.23h-1.41V46c-.14-5.26-.08-20-.08-20.19v-.25h.25c1.39,0,2.79,0,4.18,0,34.25,0,74.77,6.21,108.4,16.62l.24.07-.07.24c-1,3.36-3.32,10.94-4.72,15.54-.66,2.21-1.12,3.73-1.14,3.78l-.08.24Z"/>
    <path class="l_year" d="M723.71,25.77c40.09,0,81,8.14,108.33,16.61-1.52,5-5.81,19.15-5.86,19.32A365.55,365.55,0,0,0,720.78,46h-1.17c-.14-5.31-.08-20.18-.08-20.18l4.18,0m0-.5c-1.4,0-2.79,0-4.19,0H719v.49c0,.15-.06,14.93.08,20.2l0,.48h1.65A366.91,366.91,0,0,1,826,62.17l.46.14.16-.46c0-.06.39-1.28,1.22-4l4.63-15.29.15-.47-.48-.15C798.53,31.49,758,25.27,723.71,25.27Z"/>
  </g>
  
  <g id="l_1925">
    <path d="M923.67,108.61a366.55,366.55,0,0,0-97.09-46.49l-.23-.07.07-.24c1.42-5.07,5.84-19.17,5.88-19.31l.08-.24.23.07c50.18,14.75,91.25,41.34,102.65,49.14l.2.14-.14.21c-2,2.89-6.37,9.41-9.06,13.4L924,108.55l-.14.19Z"/>
    <path class="l_year" d="M832.54,42.57c39.74,11.68,78.12,32.37,102.58,49.11-2.92,4.29-11.21,16.58-11.31,16.72a365.25,365.25,0,0,0-97.16-46.52c1.44-5.12,5.89-19.31,5.89-19.31m-.33-.61-.14.46c-.05.15-4.47,14.25-5.9,19.32l-.13.47.47.15a366.49,366.49,0,0,1,97,46.46l.41.27.28-.4,2.4-3.55c2.7-4,7-10.34,8.91-13.18l.28-.41-.41-.28C924,83.46,882.89,56.85,832.68,42.09l-.47-.13Z"/>
  </g>

  <g id="l_1930">
    <path d="M1003.32,181.8A366.72,366.72,0,0,0,924.07,109l-.2-.14.13-.2c2.84-4.43,11.2-16.62,11.28-16.75l.14-.2.2.13c43.67,28.77,75.18,66.22,83.79,77l.16.19-.2.16-12.39,10-3.31,2.68-.2.15Z"/>
    <path class="l_year" d="M935.49,92c34.58,22.79,65.24,53.8,83.73,77-4.05,3.25-15.57,12.58-15.7,12.68a365.69,365.69,0,0,0-79.31-72.9C927.08,104.27,935.49,92,935.49,92m-.14-.68-.28.4c-.08.12-8.44,12.32-11.28,16.75l-.27.41.41.28a366.7,366.7,0,0,1,79.2,72.8l.3.37.39-.29,3.2-2.59c3.75-3,9.8-7.93,12.51-10.1l.39-.32-.31-.39c-8.62-10.79-40.15-48.27-83.85-77l-.41-.27Z"/>
  </g>

  <g id="l_1935">
    <path d="M1057.89,275.15a362,362,0,0,0-54.28-93l-.15-.19.18-.16c4-3.4,15.62-12.57,15.73-12.67l.19-.15.16.19c39.23,48.3,57.21,97.79,57.39,98.29l.08.23-19,7.57-.23.08Z"/>
    <path class="l_year" d="M1019.53,169.37c39.65,48.82,57.35,98.21,57.35,98.21l-18.75,7.48a361.62,361.62,0,0,0-54.33-93c4.06-3.43,15.73-12.66,15.73-12.66m.07-.7-.38.31c-.12.09-11.72,9.27-15.74,12.67l-.37.32.3.38a361.34,361.34,0,0,1,54.25,92.9l.18.45.46-.17,18.76-7.48.45-.18-.16-.46c-.18-.49-18.18-50-57.44-98.36l-.31-.38Z"/>
  </g>

  <g id="l_1940">
    <path d="M1082.58,380.54a366.88,366.88,0,0,0-24.43-104.84l-.09-.23.22-.1c4.84-2.05,18.62-7.42,18.75-7.47l.23-.09.1.22c19.87,48.38,24.8,97.06,25.83,110.83l0,.25-.25,0-15.87,1.29-4.25.34-.24,0Z"/>
    <path class="l_year" d="M1077.13,268.13c15.73,38.31,23.59,81.2,25.82,110.75l-20.12,1.63a365.65,365.65,0,0,0-24.45-104.9c4.89-2.08,18.75-7.48,18.75-7.48m.27-.64-.46.17c-.13.06-13.91,5.43-18.76,7.49l-.45.19.18.45a366.4,366.4,0,0,1,24.42,104.77l0,.48.49,0,4.11-.33c4.81-.39,12.56-1,16-1.3l.5,0,0-.5c-1-13.78-6-62.49-25.85-110.9l-.19-.45Z"/>
  </g>

  <g id="l_1945">
    <path d="M1093.86,498.94l-15.57-3.67-4.08-1-.24-.06.06-.24c8.5-36.6,11.59-77.84,8.48-113.15l0-.25.25,0c5.24-.47,20-1.34,20.15-1.35h.24l0,.24c4.38,42.5-2.11,90.82-9,119.29l-.06.24Z"/>
    <path class="l_year" d="M1102.9,379.49c4.37,42.4-2,90.41-9,119.21-5.05-1.2-19.49-4.59-19.65-4.63,7.7-33.15,11.88-74.74,8.49-113.23,5.3-.47,20.14-1.35,20.14-1.35m.45-.53-.48,0c-.15,0-14.91.88-20.15,1.35l-.5.05,0,.5c3.11,35.28,0,76.49-8.48,113.07l-.11.47.47.12,4.13,1c4.7,1.1,12.18,2.86,15.53,3.66l.48.11.12-.48c6.89-28.49,13.38-76.84,9-119.38l-.05-.48Z"/>
  </g>

  <g id="l_1950">
    <path d="M1051.11,604.94c-2.93-1.75-9.48-5.61-13.66-8.08l-3.76-2.22-.21-.13.13-.21a360.14,360.14,0,0,0,40.28-99.83l.06-.24.24,0c5.14,1.12,19.48,4.68,19.63,4.72l.24.06-.06.24c-11.91,51.95-35.58,93.93-42.55,105.55l-.13.22Z"/>
    <path class="l_year" d="M1074.13,494.53c5.2,1.12,19.63,4.71,19.63,4.71-9.26,40.37-27.29,80.07-42.52,105.48-4.46-2.65-17.27-10.2-17.42-10.29a359.73,359.73,0,0,0,40.31-99.9m-.37-.6-.11.48a359.84,359.84,0,0,1-40.26,99.77l-.24.42.41.25s1.09.65,3.45,2l14,8.25.43.26.26-.43c7-11.63,30.65-53.64,42.58-105.63l.11-.48-.48-.11c-.15,0-14.49-3.61-19.64-4.72l-.48-.11Z"/>
  </g>

  <g id="l_1955">
    <path d="M979.11,693.57,965.5,678.65l-.16-.18.18-.17a361.48,361.48,0,0,0,67.84-83.58l.13-.21.21.12c4.6,2.56,17.27,10.17,17.4,10.25l.21.13-.12.21c-31.36,53.74-71.33,88-71.73,88.37l-.18.15Z"/>
    <path class="l_year" d="M1033.58,594.85c4.64,2.59,17.39,10.24,17.39,10.24-31.7,54.33-71.67,88.31-71.67,88.31l-13.61-14.91a361.46,361.46,0,0,0,67.89-83.64m-.18-.68-.25.42a361.52,361.52,0,0,1-67.8,83.53l-.36.33.32.37,13.62,14.91.32.36.37-.31c.4-.34,40.41-34.66,71.79-88.43l.24-.43-.42-.25c-.13-.08-12.81-7.7-17.41-10.26l-.42-.24Z"/>
  </g>

  <g id="l_1960">
    <path d="M884.41,757.28c-.35-.74-8.56-18.1-8.63-18.26l-.1-.22.22-.1a362.06,362.06,0,0,0,89.42-60l.18-.16.17.18c3.64,3.8,13.52,14.8,13.62,14.91l.16.18-.18.17c-45.77,42.15-94,63.17-94.53,63.38l-.22.1Z"/>
    <path class="l_year" d="M965.49,678.93c3.68,3.84,13.61,14.91,13.61,14.91-46.26,42.6-94.46,63.33-94.46,63.33s-8.56-18.09-8.63-18.25a361.27,361.27,0,0,0,89.48-60m0-.7-.36.33a361.67,361.67,0,0,1-89.35,59.91l-.44.21.19.45,8.64,18.26.2.43.45-.19c.48-.21,48.8-21.25,94.6-63.43l.36-.33-.33-.37c-.09-.11-10-11.11-13.62-14.92l-.34-.35Z"/>
  </g>

  <g id="l_1965">
    <path d="M775,790.12c-.48-3.38-1.57-10.88-2.26-15.67-.36-2.5-.62-4.26-.63-4.32l0-.24.24,0a367.09,367.09,0,0,0,103.11-31l.22-.1.11.22c2.35,4.7,8.57,18.11,8.64,18.25l.1.22-.22.11c-47,22.85-95.32,30.82-109,32.72l-.24,0Z"/>
    <path class="l_year" d="M875.55,739.14c2.39,4.75,8.64,18.24,8.64,18.24-37.25,18.11-79.57,28.63-108.92,32.7-.73-5.14-2.87-19.81-2.89-20a365.29,365.29,0,0,0,103.17-31m.23-.66-.44.21a366.61,366.61,0,0,1-103,30.92l-.48.07,0,.48c0,.06.2,1.34.61,4.2.7,4.79,1.8,12.39,2.29,15.79l.07.49.49-.06c13.69-1.9,62-9.88,109.07-32.75l.44-.21-.21-.45c-.06-.13-6.28-13.55-8.64-18.25l-.22-.44Z"/>
  </g>

  <g id="l_1970">
    <path d="M721.11,794.49a392.1,392.1,0,0,1-60.31-4.58l-.25,0,0-.24c.53-3.37,1.69-10.84,2.43-15.62.38-2.51.66-4.28.67-4.33l0-.24.24,0a376.89,376.89,0,0,0,56.42,4.32,359.13,359.13,0,0,0,51.23-3.67l.24,0,0,.24c.87,5.19,2.89,19.83,2.91,20l0,.24-.24,0a349,349,0,0,1-53.49,3.91Z"/>
    <path class="l_year" d="M663.93,769.72A376.43,376.43,0,0,0,720.39,774a356.64,356.64,0,0,0,51.26-3.68c.89,5.25,2.91,20,2.91,20a349.56,349.56,0,0,1-53.45,3.91,389.83,389.83,0,0,1-60.27-4.57c.81-5.13,3.06-19.78,3.09-19.95m-.4-.57-.09.48c0,.06-.2,1.27-.62,4-.73,4.76-1.93,12.51-2.47,16l-.08.49.49.08a392.63,392.63,0,0,0,60.35,4.58,349.5,349.5,0,0,0,53.53-3.91l.48-.08-.07-.48c0-.15-2-14.8-2.9-20l-.09-.48-.48.07a358.57,358.57,0,0,1-51.19,3.67A377.57,377.57,0,0,1,664,769.23l-.48-.08Z"/>
  </g>

  <g id="l_1975">
    <path d="M660.3,789.83c-51.75-7.51-96.17-28-108.55-34.16l-.23-.11.11-.22c1.53-3.13,5-10.18,7.07-14.52,1-2.12,1.74-3.59,1.76-3.64l.12-.21.22.1a366.68,366.68,0,0,0,102.68,32.32l.24,0,0,.24c-.7,5.22-3.09,19.8-3.11,20l0,.24Z"/>
    <path class="l_year" d="M560.69,737.3a365.52,365.52,0,0,0,102.75,32.34c-.7,5.27-3.11,19.94-3.11,19.94-41-6-81.9-21-108.47-34.13,2.28-4.66,8.75-18,8.83-18.15m-.22-.66-.23.43s-.58,1.2-1.84,3.78l-7,14.38-.22.45.44.22C564,762,608.47,782.56,660.26,790.08l.49.07.08-.49c0-.15,2.41-14.74,3.1-20l.07-.48-.48-.08A366.56,366.56,0,0,1,560.9,736.85l-.43-.21Z"/>
  </g>

  <g id="l_1980">
    <path d="M551.24,755.41C504,733,467.55,700.34,457.52,690.86l-.18-.17.17-.19c2.37-2.52,7.66-8.2,10.95-11.73l2.83-3,.17-.18.18.17a367.09,367.09,0,0,0,88.64,61.07l.22.11-.1.22c-2.19,4.78-8.76,18-8.83,18.15l-.11.22Z"/>
    <path class="l_year" d="M471.47,675.92A365.08,365.08,0,0,0,560.17,737c-2.22,4.84-8.82,18.15-8.82,18.15-37.44-17.73-72.12-44.15-93.66-64.5,3.55-3.79,13.66-14.64,13.78-14.76m0-.7-.34.35-2.84,3-10.94,11.72-.35.37.37.34c10,9.49,46.49,42.19,93.78,64.59l.45.21.21-.44c.07-.13,6.64-13.37,8.84-18.16l.2-.44-.44-.22a366.28,366.28,0,0,1-88.58-61l-.36-.34Z"/>
  </g>

  <g id="l_1985">
    <path d="M457.15,690.42c-45.64-42.28-70.43-88.75-70.67-89.22l-.11-.21.21-.12,17.51-10,.21-.12.13.22a361.78,361.78,0,0,0,66.84,84.38l.18.17-.16.18c-3.5,3.93-13.69,14.65-13.79,14.76l-.17.18Z"/>
    <path class="l_year" d="M404.21,591a361.45,361.45,0,0,0,66.89,84.45c-3.53,4-13.78,14.75-13.78,14.75-46.14-42.75-70.62-89.15-70.62-89.15L404.21,591m.19-.67-.43.23-17.52,10.06-.42.24.23.42c.24.47,25.05,47,70.72,89.29l.36.33.34-.36c.11-.11,10.29-10.83,13.79-14.76l.33-.37-.36-.33a361.87,361.87,0,0,1-66.8-84.33l-.24-.42Z"/>
  </g>

  <g id="l_1990">
    <path d="M386.06,600.66C359.61,555.55,347.9,508,344.94,494.55l-.05-.24.24-.05,15.12-3.41,4.58-1,.24-.05.05.24A366.83,366.83,0,0,0,404,590.38l.12.21-.21.13c-4.5,2.72-17.39,10-17.52,10l-.21.12Z"/>
    <path class="l_year" d="M364.88,490.06a365.61,365.61,0,0,0,38.91,100.45c-4.55,2.74-17.51,10-17.51,10-20.95-35.73-34.74-77.09-41.09-106,5.06-1.13,19.52-4.41,19.69-4.44m.38-.59-.48.1-4,.91c-4.7,1.06-12.29,2.78-15.67,3.53l-.49.11.11.49c3,13.49,14.67,61,41.15,106.18l.25.42.42-.24c.13-.07,13-7.32,17.53-10l.42-.25-.24-.42A366.38,366.38,0,0,1,365.37,490l-.11-.48Z"/>
  </g>

  <g id="l_1995">
    <path d="M344.84,494.11c-12.11-50.88-9.41-99.74-8.3-113.5l0-.25.25,0c3.44.27,11.11.84,15.93,1.2l4.21.32.24,0,0,.24A366.77,366.77,0,0,0,365,489.52l.05.24-.24.06c-5.1,1.28-19.54,4.44-19.69,4.47l-.24.06Z"/>
    <path class="l_year" d="M336.79,380.63c5.18.4,20,1.5,20.13,1.51a365.7,365.7,0,0,0,7.84,107.44c-5.16,1.29-19.68,4.47-19.68,4.47-9.59-40.29-10.68-83.88-8.29-113.42m-.45-.54,0,.5c-1.11,13.77-3.81,62.67,8.3,113.57l.12.48.48-.1c.14,0,14.59-3.2,19.69-4.48l.48-.12-.11-.47a366.66,366.66,0,0,1-7.83-107.29l0-.49-.49,0-4.14-.31-16-1.21-.49,0Z"/>
  </g>

  <g id="l_2000">
    <path d="M357,381.89c-5.25-.28-20-1.53-20.13-1.55l-.24,0v-.24C340.1,327.9,357.13,282,362.26,269.2l.09-.23.24.09c3.16,1.26,10.2,4,14.7,5.8l4.08,1.6.23.1-.09.22a366.53,366.53,0,0,0-24.26,104.88l0,.24Z"/>
    <path class="l_year" d="M362.49,269.3c4.83,1.91,18.63,7.33,18.79,7.39a365.25,365.25,0,0,0-24.28,105c-5.31-.29-20.13-1.55-20.13-1.55,2.76-41.32,14.6-83.29,25.62-110.79m-.27-.65-.19.46c-5.14,12.83-22.18,58.74-25.66,111l0,.49.49,0c.15,0,14.88,1.26,20.14,1.55l.49,0,0-.49a366.91,366.91,0,0,1,24.25-104.8l.18-.46-.45-.19-3.87-1.52c-4.49-1.77-11.7-4.6-14.92-5.88l-.46-.18Z"/>
  </g>

  <g id="l_2005">
    <path d="M381.44,276.46c-4.94-1.81-18.66-7.31-18.8-7.36l-.23-.09.09-.23c18.58-48.89,48.28-87.78,56.94-98.54l.15-.19.2.16,12.36,9.84,3.44,2.73.18.15-.15.19a367.21,367.21,0,0,0-53.87,93.2l-.08.23Z"/>
    <path class="l_year" d="M419.63,170.4c4.05,3.24,15.67,12.46,15.8,12.57a365.61,365.61,0,0,0-53.91,93.26c-5-1.83-18.79-7.36-18.79-7.36,14.72-38.72,38.32-75.38,56.9-98.47m-.08-.7-.31.39c-8.66,10.76-38.38,49.68-57,98.6l-.17.46.45.18c.14.05,13.87,5.56,18.81,7.37l.46.17.18-.46a366.37,366.37,0,0,1,53.83-93.13l.3-.38-.37-.32-3.37-2.67L419.94,170l-.39-.31Z"/>
  </g>

  <g id="l_2010">
    <path d="M435.6,182.8c-4.19-3.18-15.68-12.5-15.79-12.6l-.19-.15.15-.2c38.61-48.79,83-77.11,83.45-77.39l.21-.13.13.2,11.38,16.68.14.21-.2.13a361.71,361.71,0,0,0-78.94,73.21l-.15.19Z"/>
    <path class="l_year" d="M503.36,92.67s11.28,16.53,11.37,16.68a361.25,361.25,0,0,0-79,73.25C431.51,179.38,420,170,420,170c39-49.32,83.39-77.34,83.39-77.34m.14-.68-.41.26c-.44.28-44.88,28.63-83.52,77.45l-.3.39.38.31c.12.09,11.6,9.41,15.79,12.6l.39.29.31-.38A361.62,361.62,0,0,1,515,109.76l.4-.28-.27-.41L503.77,92.39l-.27-.4Z"/>
  </g>

  <g id="l_2015">
    <path d="M514.9,109.23c-3.07-4.28-11.31-16.56-11.39-16.68l-.14-.21.21-.14c51.24-35.29,102-49.31,102.51-49.45l.23-.06.07.23c.25.78,5.93,19.12,6,19.29l.07.23-.24.08a362,362,0,0,0-97,46.77l-.2.13Z"/>
    <path class="l_year" d="M606.16,43l6,19.28a361.23,361.23,0,0,0-97,46.8c-3.1-4.32-11.38-16.67-11.38-16.67C555.52,56.74,606.16,43,606.16,43m.33-.61-.47.12c-.5.14-51.31,14.17-102.59,49.49l-.4.28.27.41c.09.12,8.32,12.41,11.39,16.68l.29.4.4-.28a361.79,361.79,0,0,1,96.9-46.73l.46-.15-.13-.47-6-19.29-.14-.46Z"/>
  </g>

  <g id="l_2020">
    <path d="M612.38,62.21c-1.67-5-6-19.14-6-19.29l-.07-.23.23-.08c33.22-10.68,74.92-17.06,111.55-17.06h1.22v.25c0,3.53,0,11.55,0,16.35,0,2.24,0,3.78,0,3.83v.25h-.24A366.57,366.57,0,0,0,612.69,62.37l-.24.07Z"/>
    <path class="l_year" d="M718.1,25.8h1c0,5.18,0,20,0,20.18A365.39,365.39,0,0,0,612.61,62.13c-1.69-5.05-6-19.28-6-19.28,39-12.54,81.86-17,111.47-17m0-.5c-36.66,0-78.38,6.39-111.62,17.08l-.47.15.14.47c.05.14,4.32,14.29,6,19.29l.15.46.47-.14A366.49,366.49,0,0,1,719.12,46.49h.49V46c0-.06,0-1.32,0-4.17,0-4.83,0-12.57,0-16v-.5H718.1Z"/>
  </g>
</svg>
